<svg xmlns="http://www.w3.org/2000/svg" xmlns:xlink="http://www.w3.org/1999/xlink" xmlns:lucid="lucid" width="1670" height="865"><g transform="translate(-42 -33)" lucid:page-tab-id="0_0"><path d="M181.38 459.8h-19.75c-.9 0-1.63-.72-1.63-1.6v-2.43c0-9.04 5.94-16.62 14.75-18.74.4-.1.8-.05 1.16.16 2.6 1.38 5.42 1.38 8 0 .4-.22.76-.26 1.17-.17 2.3.57 4.22 1.4 6.2 2.7l-1.82 2.7c-1.47-.95-2.85-1.6-4.57-2.05-3.28 1.5-6.66 1.5-9.94 0-7.03 1.97-11.7 8.1-11.7 15.4v.78h18.14z" stroke="#fff" stroke-opacity="0" fill="#666"/><path d="M179.9 441.4c-5.9 0-10.65-4.76-10.65-10.62 0-5.86 4.76-10.62 10.64-10.62 5.86-.06 10.65 4.65 10.7 10.5.06 4.05-2 7.5-5.56 9.42-1.65.92-3.25 1.32-5.15 1.32zm0-18c-4.1 0-7.47 3.28-7.5 7.38 0 2.78 1.42 5.16 3.88 6.48 2.33 1.25 4.9 1.25 7.22 0 2.48-1.34 3.9-3.76 3.87-6.6-.05-4.04-3.4-7.3-7.48-7.25zM234.6 459.8h-19.75v-3.23H233v-.8c0-7.3-4.68-13.44-11.7-15.4-3.3 1.53-6.67 1.53-9.96 0-1.72.48-3.13 1.14-4.6 2.17l-1.85-2.67c1.96-1.37 3.87-2.24 6.2-2.83.4-.1.8-.04 1.18.16 2.57 1.4 5.42 1.4 8.02 0 .37-.2.75-.25 1.16-.16 8.8 2.12 14.75 9.7 14.75 18.73v2.42c0 .88-.7 1.58-1.6 1.6z" stroke="#fff" stroke-opacity="0" fill="#666"/><path d="M216.28 441.4c-5.9 0-10.7-4.8-10.7-10.72 0-5.9 4.83-10.68 10.75-10.68s10.7 4.82 10.7 10.72c0 4.02-2.04 7.45-5.58 9.37-1.67.9-3.28 1.3-5.17 1.3zm0-18c-4.1-.02-7.44 3.28-7.46 7.4-.02 2.77 1.4 5.14 3.86 6.45 2.32 1.26 4.9 1.26 7.23 0 2.52-1.33 3.96-3.77 3.9-6.6-.07-4.08-3.44-7.33-7.52-7.25zM224 496.2h-51.86c-.88 0-1.6-.7-1.6-1.6v-3.44c-.05-12.47 8.2-22.94 20.32-25.9.44-.1.83-.05 1.2.13 3.87 2.07 8.1 2.07 12 0 .35-.2.73-.25 1.17-.13 12.17 2.9 20.43 13.4 20.37 25.9v3.43c0 .9-.7 1.6-1.6 1.6zm-50.2-3.2h48.55v-1.84c0-10.73-6.93-19.75-17.34-22.54-4.56 2.2-9.35 2.2-13.92 0-10.4 2.8-17.3 11.8-17.3 22.54z" stroke="#fff" stroke-opacity="0" fill="#666"/><path d="M198.13 470.15c-2.57 0-4.76-.55-7.04-1.78-7.08-3.87-9.68-12.7-5.82-19.78 3.88-7.06 12.73-9.66 19.83-5.8 7.07 3.86 9.67 12.7 5.82 19.77-1.4 2.57-3.24 4.4-5.8 5.8-2.26 1.23-4.45 1.78-7 1.78zm0-25.5c-4.24-.05-7.9 2.07-9.93 5.8-2.92 5.4-.94 12.15 4.47 15.1 3.5 1.86 7.36 1.86 10.86 0 3.77-2.04 5.93-5.7 5.87-9.94-.1-6.1-5.14-11.03-11.27-10.95z" stroke="#fff" stroke-opacity="0" fill="#666"/><path d="M235.05 459.8H197.2c-.64 0-1.16-.5-1.16-1.17v-2.5c-.04-9.1 6-16.75 14.82-18.9.33-.1.6-.04.9.1 2.8 1.5 5.9 1.5 8.75 0 .25-.14.53-.2.85-.1 8.88 2.13 14.9 9.77 14.86 18.9v2.5c0 .66-.5 1.18-1.15 1.18zm-36.64-2.35h35.44v-1.33c0-7.83-5.06-14.4-12.65-16.45-3.35 1.6-6.84 1.6-10.17 0-7.6 2.04-12.62 8.62-12.62 16.45z" stroke="#fff" stroke-opacity="0" stroke-width=".73" fill="#fff" fill-opacity="0"/><path d="M199 459.8h-37.84c-.64 0-1.16-.5-1.16-1.17v-2.5c-.04-9.1 6-16.75 14.82-18.9.32-.1.6-.04.9.1 2.8 1.5 5.9 1.5 8.74 0 .24-.14.53-.2.85-.1 8.88 2.13 14.9 9.77 14.87 18.9v2.5c0 .66-.52 1.18-1.17 1.18zm-36.63-2.35h35.43v-1.33c0-7.83-5.06-14.4-12.65-16.45-3.34 1.6-6.83 1.6-10.17 0-7.6 2.04-12.6 8.62-12.6 16.45z" stroke="#fff" stroke-opacity="0" stroke-width=".73" fill="#fff" fill-opacity="0"/><path d="M385.25 532.82H497.6" stroke="#666" fill="none"/><path d="M385.27 533.32h-.52v-1h.52z" fill="#666"/><path d="M512.38 532.82l-14.27 4.64v-9.27z" stroke="#666" fill="#666"/><path d="M198.1 496.7v24.12c0 6.63 5.38 12 12 12h93.52" stroke="#666" fill="none"/><path d="M198.6 496.72h-1v-.5h1z" fill="#666"/><path d="M318.38 532.82l-14.26 4.64v-9.27z" stroke="#666" fill="#666"/><path d="M340 180h1160v620H340z" stroke="#232f3e" stroke-width="2" fill-opacity="0"/><path d="M340 180h56v56h-56v-56z" stroke="#fff" stroke-opacity="0" fill="#232f3e"/><path d="M358.22 205.87c-.04.48.05.87.17 1.34.1.4.28.7.48 1.07.04.1.08.22.08.34 0 .2-.12.36-.28.46l-.95.62c-.12.08-.25.13-.37.13-.16 0-.33-.06-.45-.2-.2-.2-.36-.43-.52-.7-.17-.25-.3-.53-.46-.86-1.1 1.37-2.62 2.1-4.4 2.06-1.14.06-2.12-.3-2.95-1.08-.78-.8-1.15-1.76-1.1-2.85-.05-1.23.4-2.28 1.35-3.08 1.07-.85 2.3-1.23 3.66-1.16.57 0 1.02.02 1.6.1.57.1 1.1.2 1.72.33v-1.1c.08-.88-.16-1.67-.7-2.37-.74-.56-1.56-.8-2.46-.7-.53 0-1.03.07-1.6.2-.58.13-1.03.3-1.6.5l-.5.2h-.24c-.2 0-.33-.16-.33-.45v-.75c0-.18.04-.34.12-.5.12-.16.24-.26.4-.33.66-.3 1.2-.5 1.9-.67.77-.2 1.47-.3 2.3-.28 1.47-.13 2.78.26 3.9 1.2.94 1.05 1.35 2.28 1.22 3.67zm-6.07 2.28c.57 0 1.06-.1 1.6-.28.57-.2 1.02-.5 1.44-.96.23-.27.4-.56.48-.93.12-.45.16-.84.16-1.3V204c-.53-.1-.94-.17-1.43-.2H353c-.8-.08-1.55.12-2.2.58-.54.45-.8 1.04-.75 1.73-.04.6.13 1.16.54 1.6.44.38.97.52 1.55.45zm12 1.6c-.22 0-.42-.03-.6-.15-.15-.17-.23-.36-.32-.6l-3.5-11.5-.1-.62c0-.24.1-.37.36-.37h1.47c.2 0 .37.04.57.15.17.18.25.37.3.6l2.5 9.96 2.38-9.93c0-.24.08-.44.28-.6.17-.12.37-.16.58-.15h1.2c.24 0 .4.03.6.15.17.18.25.36.3.6l2.33 9.94 2.56-10c.04-.2.16-.4.33-.58.15-.1.36-.17.56-.14h1.4c.16 0 .33.1.37.3v.31s0 .2-.12.35l-3.6 11.53c-.05.22-.13.42-.3.6-.2.1-.36.14-.57.13h-1.27c-.25.04-.45-.02-.62-.15-.16-.16-.25-.36-.3-.6l-2.3-9.6-2.3 9.6c-.03.24-.1.44-.27.6-.2.13-.4.2-.62.16zm19.2.38c-.82 0-1.5-.07-2.3-.25-.65-.13-1.14-.3-1.72-.6-.2-.1-.37-.23-.45-.42-.08-.14-.12-.28-.12-.43v-.75c0-.3.12-.46.32-.46h.3l.36.16c.58.23 1.03.4 1.6.5.62.14 1.15.2 1.8.2.8.05 1.5-.1 2.2-.5.48-.3.77-.8.72-1.4.05-.4-.12-.76-.36-1.04-.46-.4-.95-.65-1.52-.8l-2.18-.68c-.94-.25-1.73-.73-2.38-1.5-.5-.65-.74-1.35-.74-2.18 0-.6.12-1.08.4-1.6.3-.5.63-.9 1.08-1.22.5-.38.98-.6 1.6-.78.66-.18 1.2-.26 1.9-.25.32-.03.6-.03.97 0l1 .16.8.22.67.26c.16.1.28.22.45.38.08.15.12.3.12.5v.7c0 .32-.12.47-.37.47-.2-.03-.37-.08-.57-.18-.95-.42-1.8-.6-2.88-.58-.7-.04-1.3.1-1.97.4-.5.3-.74.8-.7 1.36 0 .4.13.76.46 1.05.5.4.98.65 1.6.82l2.1.67c.94.24 1.67.7 2.3 1.44.48.64.7 1.3.7 2.1 0 .63-.13 1.17-.38 1.73-.3.55-.62.95-1.1 1.32-.5.4-1 .66-1.6.84-.75.23-1.4.33-2.15.34zM386.1 217.48c-5.6 3.82-11.36 5.58-18.15 5.56-8.54.05-15.82-2.74-22.16-8.45-.5-.42 0-1 .48-.68 7.07 4.05 14.03 5.9 22.2 5.9 6.1-.04 11.3-1.1 16.93-3.47.83-.35 1.52.55.7 1.13z" stroke="#fff" stroke-opacity="0" fill="#fff"/><path d="M388.16 215.2c-.64-.82-4.16-.38-5.75-.2-.46 0-.53-.36-.1-.66 2.8-1.98 7.42-1.4 8-.74.6.67-.14 5.28-2.78 7.5-.4.32-.78.13-.6-.3.54-1.52 1.86-4.83 1.24-5.6z" stroke="#fff" stroke-opacity="0" fill="#fff"/><use xlink:href="#a" transform="matrix(1,0,0,1,411.0000000000002,199.99999999999994) translate(0 14.222222222222223)"/><use xlink:href="#b" transform="matrix(1,0,0,1,411.0000000000002,199.99999999999994) translate(45.333333333333336 14.222222222222223)"/><path d="M320 500.9h64.75v63.84H320V500.9z" stroke="#fff" stroke-opacity="0" fill="#693cc5"/><path d="M343.56 537.46c1.15.4 2.17.58 3.4.62.76.06 1.44-.12 2.07-.57.5-.45.74-1.02.7-1.7.08-.7-.15-1.3-.66-1.8-.68-.45-1.4-.63-2.2-.57-.98.02-1.8.07-2.77.18v-1.2l.34-5.25h6.5v1.4h-5.04l-.23 3.58c.6-.1 1.1-.16 1.73-.16 1.14-.08 2.13.26 3 1 .78.74 1.15 1.68 1.1 2.75.03 1.1-.4 2.07-1.27 2.78-.98.77-2.08 1.12-3.34 1.07-1.24 0-2.28-.2-3.4-.7zM357.67 532.34h.32c1.06-.07 2 .23 2.82.9.74.7 1.1 1.57 1.03 2.56.04 1.1-.4 2.04-1.27 2.74-1 .75-2.1 1.08-3.38 1.02-1.2 0-2.2-.22-3.3-.7v-1.4c1.1.4 2.12.58 3.3.62.78.06 1.46-.14 2.1-.6.5-.43.76-1.02.7-1.7 0-1.4-.9-2.12-2.7-2.12-.6 0-1.13.03-1.73.1v-1.17l3.74-4.03h-5.2v-1.44h7.24v1.4z" stroke="#fff" stroke-opacity="0" fill="#fff"/><path d="M352.38 549c-.17 0-.3-.04-.45-.13-2.93-1.7-5.7-2.74-9.04-3.4-1.84-.32-7.77-1.7-7.77-5.96 0-1.9.76-3.2 1.72-4.8 1.5-2.18 2.25-4.38 2.35-7 0-2.52-.66-4.63-2.07-6.74-.2-.3-.17-.7.07-1l1.38-1.7c.27-.32.72-.4 1.1-.2 1.87 1.08 3.66 1.55 5.83 1.58 2.4.03 4.43-.6 6.36-1.98.3-.22.73-.22 1 0 1.97 1.38 4 2 6.4 1.98 2.13-.03 3.96-.54 5.82-1.57.38-.22.83-.13 1.1.18l1.4 1.7c.23.3.26.7.05 1-1.4 2.1-2.03 4.23-2.07 6.75 0 3.03 1.25 5.1 2.35 7 .98 1.6 1.74 2.9 1.74 4.8 0 4.27-5.94 5.65-7.77 5.97-3.35.66-6.1 1.67-9.04 3.4-.14.1-.28.12-.45.12zm-13.46-28.5c1.35 2.26 1.97 4.5 1.97 7.1 0 3.5-1.43 5.93-2.6 7.85-.86 1.5-1.45 2.52-1.45 3.97 0 3.02 5.28 4.13 6.32 4.3 3.4.68 6.17 1.72 9.18 3.42 3-1.7 5.8-2.74 9.18-3.4 1.07-.2 6.35-1.3 6.35-4.32 0-1.45-.6-2.46-1.5-3.97-1.13-1.92-2.58-4.35-2.58-7.84.04-2.6.66-4.84 2.04-7.1l-.55-.67c-1.94.98-3.84 1.45-6.05 1.45-2.56.03-4.73-.57-6.9-1.95-2.14 1.38-4.35 1.98-6.9 1.95-2.2 0-4.08-.47-6.04-1.45z" stroke="#fff" stroke-opacity="0" fill="#fff"/><path d="M352.4 554.1c-.22 0-.4-.04-.57-.17-3.06-2.17-6.04-3.5-9.7-4.25-7.12-1.28-11.35-5.15-11.35-10.25.1-2.6.78-4.8 2.3-6.97.94-1.58 1.72-2.94 1.72-4.8-.1-2.6-1.17-4.77-3.15-6.52-.4-.25-.48-.8-.18-1.2.05 0 .05-.03.05-.03 0-.07 5.1-6.07 6.25-7.6.13-.26.4-.38.65-.38.3 0 .52.08.73.3 1.64 1.9 3.75 2.97 6.34 3.1 2.4 0 4.3-1.07 6.12-3.4.34-.4.95-.47 1.33-.13.05.03.1.07.13.12 1.82 2.38 3.7 3.4 6.13 3.4 2.6-.13 4.7-1.2 6.35-3.1.22-.22.43-.3.73-.3.26 0 .52.12.65.38 1.17 1.53 6.2 7.53 6.25 7.6.13.18.22.4.18.65 0 .25-.13.42-.3.6-2 1.74-3.07 3.9-3.15 6.5 0 1.87.83 3.23 1.73 4.8 1.5 2.17 2.2 4.4 2.3 6.98 0 5.1-4.24 8.97-11.36 10.25-3.66.76-6.64 2.04-9.7 4.25-.13.1-.3.17-.48.17zm-18.94-33.72c2.07 2.04 3.1 4.42 3.15 7.27 0 2.34-1 4.04-1.98 5.7-1.03 1.83-2.02 3.5-2.02 6.12 0 6.2 7.54 8.04 9.83 8.46 3.75.77 6.82 2.05 9.96 4.17 3.1-2.12 6.16-3.4 9.92-4.17 2.28-.42 9.83-2.25 9.83-8.46 0-2.63-1-4.25-2.03-6.12-1-1.7-1.98-3.4-1.98-5.7.04-2.85 1.08-5.23 3.15-7.27-1.18-1.36-3.77-4.47-5.15-6.2-1.94 1.86-4.22 2.84-6.9 2.92-2.8 0-5.17-1.14-6.9-3.27-1.77 2.13-4.14 3.27-6.94 3.27-2.67-.08-4.95-1.06-6.9-2.93-1.25 1.74-3.88 4.85-5.04 6.2z" stroke="#fff" stroke-opacity="0" fill="#fff"/><use xlink:href="#c" transform="matrix(1,0,0,1,290,573.738048809039) translate(20.57407407407407 14.222222222222223)"/><use xlink:href="#d" transform="matrix(1,0,0,1,290,573.738048809039) translate(43.78395061728395 35.55555555555556)"/><path d="M453.15 77c0-4.42 3.58-8 8-8h836.75c4.4 0 8 3.58 8 8v25.16c0 4.4-3.6 8-8 8H461.15c-4.42 0-8-3.6-8-8z" stroke="#000" stroke-opacity="0" stroke-width="2" fill="#fff" fill-opacity="0"/><use xlink:href="#e" transform="matrix(1,0,0,1,457.14655278534315,73) translate(222.87913580246914 25.782777777777778)"/><use xlink:href="#f" transform="matrix(1,0,0,1,457.14655278534315,73) translate(346.4149382716049 25.782777777777778)"/><use xlink:href="#g" transform="matrix(1,0,0,1,457.14655278534315,73) translate(486.26679012345676 25.782777777777778)"/><use xlink:href="#h" transform="matrix(1,0,0,1,457.14655278534315,73) translate(553.1334567901234 25.782777777777778)"/><path d="M645.3 108.8h475.35M645.32 108.8h-1.03M1120.62 108.8h1.03" stroke="#a9afb8" stroke-width="2" fill="none"/><path d="M453.15 118.16c0-4.42 3.58-8 8-8h837.7c4.42 0 8 3.58 8 8V121c0 4.42-3.58 8-8 8h-837.7c-4.42 0-8-3.58-8-8z" stroke="#000" stroke-opacity="0" stroke-width="2" fill="#fff" fill-opacity="0"/><use xlink:href="#i" transform="matrix(1,0,0,1,457.1465527853436,114.15522395689881) translate(319.0447222222222 14.917037037037037)"/><use xlink:href="#j" transform="matrix(1,0,0,1,457.1465527853436,114.15522395689881) translate(375.0036728395062 14.917037037037037)"/><use xlink:href="#k" transform="matrix(1,0,0,1,457.1465527853436,114.15522395689881) translate(424.2492489711934 14.917037037037037)"/><use xlink:href="#l" transform="matrix(1,0,0,1,457.1465527853436,114.15522395689881) translate(436.6987345679012 14.917037037037037)"/><use xlink:href="#m" transform="matrix(1,0,0,1,457.1465527853436,114.15522395689881) translate(474.08968106995883 14.917037037037037)"/><use xlink:href="#n" transform="matrix(1,0,0,1,457.1465527853436,114.15522395689881) translate(499.58350823045265 14.917037037037037)"/><path d="M1117.94 671.6H1105c-.66 0-1.26-.38-1.52-.98l-18.14-38.9h-7.32c-.9 0-1.7-.75-1.7-1.68v-11.22c0-.92.8-1.7 1.7-1.7h16.15c.7 0 1.25.4 1.5 1l18.1 38.9h4.17c.9 0 1.7.75 1.7 1.73v11.16c0 .94-.8 1.7-1.7 1.7zm-11.9-3.43h10.17v-7.73h-3.5c-.65 0-1.25-.38-1.5-.98l-18.07-38.95h-13.38v7.8h6.67c.7 0 1.3.38 1.56.98z" stroke="#fff" stroke-opacity="0" fill="#d86613"/><path d="M1082.8 671.6H1069c-.92 0-1.7-.77-1.7-1.7 0-.28.06-.5.2-.72l14.43-30.27c.3-.6.88-.97 1.55-.97s1.24.34 1.54.95l6.9 14.3c.22.48.22.98 0 1.45l-7.56 16c-.3.6-.86.97-1.53.97zm-11.1-3.4h10.02l6.8-14.27-5.1-10.37z" stroke="#fff" stroke-opacity="0" fill="#d86613"/><path d="M1094 687.57c-22.08 0-40-17.92-40-40s17.92-40 40-40 40 17.92 40 40-17.92 40-40 40zm0-76.56c-20.24 0-36.56 16.33-36.56 36.57 0 20.24 16.32 36.56 36.56 36.56 20.24 0 36.56-16.32 36.56-36.56 0-20.24-16.32-36.56-36.56-36.56z" stroke="#fff" stroke-opacity="0" fill="#d86613"/><use xlink:href="#o" transform="matrix(1,0,0,1,1023.9962525695266,696.568569933909) translate(34.55 14.4)"/><use xlink:href="#p" transform="matrix(1,0,0,1,1023.9962525695266,696.568569933909) translate(19.599999999999994 36)"/><path d="M1117.94 447.36H1105c-.66 0-1.26-.38-1.52-.98l-18.14-38.9h-7.32c-.9 0-1.7-.76-1.7-1.68v-11.22c0-.93.8-1.7 1.7-1.7h16.15c.7 0 1.25.4 1.5 1l18.1 38.88h4.17c.9 0 1.7.76 1.7 1.74v11.17c0 .92-.8 1.7-1.7 1.7zm-11.9-3.43h10.17v-7.74h-3.5c-.65 0-1.25-.4-1.5-1l-18.07-38.93h-13.38v7.78h6.67c.7 0 1.3.4 1.56.98z" stroke="#fff" stroke-opacity="0" fill="#d86613"/><path d="M1082.8 447.36H1069c-.92 0-1.7-.78-1.7-1.72 0-.27.06-.47.2-.7l14.43-30.28c.3-.6.88-.97 1.55-.97s1.24.33 1.54.93l6.9 14.3c.22.48.22 1 0 1.46l-7.56 15.98c-.3.6-.86.98-1.53.98zm-11.1-3.4h10.02l6.8-14.28-5.1-10.37z" stroke="#fff" stroke-opacity="0" fill="#d86613"/><path d="M1094 463.32c-22.08 0-40-17.92-40-40s17.92-40 40-40 40 17.92 40 40-17.92 40-40 40zm0-76.56c-20.24 0-36.56 16.32-36.56 36.56 0 20.24 16.32 36.56 36.56 36.56 20.24 0 36.56-16.32 36.56-36.56 0-20.24-16.32-36.56-36.56-36.56z" stroke="#fff" stroke-opacity="0" fill="#d86613"/><use xlink:href="#q" transform="matrix(1,0,0,1,1023.9962525695266,472.32260220812947) translate(47.025 14.4)"/><use xlink:href="#r" transform="matrix(1,0,0,1,1023.9962525695266,472.32260220812947) translate(52.525 36)"/><path d="M774 472.82h120v120H774v-120z" stroke="#fff" stroke-opacity="0" fill="#693cc5"/><path d="M851.6 571.25c-.35 0-.64-.16-.93-.3-.43-.32-.67-.78-.67-1.32v-73.6c0-.55.3-1.1.77-1.4.48-.3 1.08-.3 1.58-.07l20.82 10.22c.56.23.9.76.9 1.38v56.56c.02.76-.42 1.38-1.1 1.6l-20.8 6.93h-.56zm1.62-72.62v68.77l17.6-5.84v-54.4zM816.38 571.24h-.5l-20.8-6.9c-.68-.24-1.1-.93-1.1-1.63v-56.54c0-.62.35-1.15.9-1.38l20.8-10.22c.54-.24 1.1-.24 1.62.07.48.3.74.85.74 1.4v73.6c0 .54-.24 1-.67 1.3-.3.24-.6.3-1 .3zm-19.2-9.6l17.62 5.84v-68.85l-17.6 8.6z" stroke="#fff" stroke-opacity="0" fill="#fff"/><path d="M850 516.82h-4.8v-3.2h4.8zm-9.6 0h-4.82v-3.2h4.8zm-9.6 0H826v-3.2h4.8zm-9.6 0h-4.8v-3.2h4.8zM850 552.02h-4.8v-3.2h4.8zm-9.6 0h-4.82v-3.2h4.8zm-9.6 0H826v-3.2h4.8zm-9.6 0h-4.8v-3.2h4.8zM826.97 538.33l-6-5.13c-.7-.58-.76-1.6-.2-2.26l.2-.18 5.98-5.14 2.1 2.43-4.6 3.98 4.6 3.9zM841.04 538.33l-2.08-2.43 4.57-3.87-4.6-3.92 2.1-2.48 6 5.12c.68.58.76 1.6.2 2.27l-.2.17z" stroke="#fff" stroke-opacity="0" fill="#fff"/><path d="M829.3 541.7l6.35-18.8 3.03 1.02-6.36 18.8-3.03-1.02z" stroke="#fff" stroke-opacity="0" stroke-width=".32" fill="#fff"/><use xlink:href="#s" transform="matrix(1,0,0,1,743.9962525695266,601.8248357773045) translate(0.04999999999999716 14.4)"/><use xlink:href="#t" transform="matrix(1,0,0,1,743.9962525695266,601.8248357773045) translate(34.05 14.4)"/><use xlink:href="#u" transform="matrix(1,0,0,1,743.9962525695266,601.8248357773045) translate(110 14.4)"/><use xlink:href="#v" transform="matrix(1,0,0,1,743.9962525695266,601.8248357773045) translate(169.95 14.4)"/><use xlink:href="#w" transform="matrix(1,0,0,1,743.9962525695266,601.8248357773045) translate(41.025 36)"/><use xlink:href="#x" transform="matrix(1,0,0,1,743.9962525695266,601.8248357773045) translate(109.975 36)"/><use xlink:href="#y" transform="matrix(1,0,0,1,743.9962525695266,601.8248357773045) translate(39.025 57.6)"/><use xlink:href="#z" transform="matrix(1,0,0,1,743.9962525695266,601.8248357773045) translate(121.975 57.6)"/><use xlink:href="#A" transform="matrix(1,0,0,1,743.9962525695266,601.8248357773045) translate(5.25 79.20000000000002)"/><use xlink:href="#B" transform="matrix(1,0,0,1,743.9962525695266,601.8248357773045) translate(93.2 79.20000000000002)"/><use xlink:href="#C" transform="matrix(1,0,0,1,743.9962525695266,601.8248357773045) translate(145.75 79.20000000000002)"/><path d="M1274 587.57h120v120h-120v-120z" stroke="#fff" stroke-opacity="0" stroke-width="2" fill="#3b48cc"/><path d="M1354.4 652.35l-10.6 10.55c2-.56 3.64-1.2 5.5-2.24 1.08.64 1.68 1.68 1.9 2.88 0 2.96-6.2 6.15-15.4 7.43-3.05.4-5.55.56-8.6.56h-1.58c-12.95-.24-22.42-4.3-22.42-8 .16-1.2.82-2.15 1.9-2.87 5 2.8 13.17 4.48 22.1 4.48h.16l.93-3.2h-1.1c-8.82 0-16.98-1.76-21.28-4.48-1.74-1.1-2.72-2.4-2.72-3.43v-7.44c4.9 3.75 14.64 5.67 24 5.67 1.25 0 2.5 0 3.75-.08l.93-3.2c-1.63.07-3.1.15-4.68.15-13.72 0-24-4.24-24-8 .16-1.27.82-2.23 1.9-2.87 4.4 2.48 11.2 4 18.9 4.4l.1-3.2c-7.57-.4-14.42-2-18.18-4.48-1.74-1.04-2.67-2.32-2.72-3.43v-7.36c4.9 3.77 14.64 5.7 24 5.7h.33l1.74-3.2h-2.07c-13.72 0-24-4.17-24-8 0-3.76 10.28-8 24-8 4.84 0 8.98.48 13.7 1.6h8.83c-4.84-2.96-13.12-4.8-22.53-4.8-13.17 0-27.2 3.92-27.2 11.2v12.87c.1 1.9.9 3.5 2.44 4.7-1.53 1.3-2.34 2.9-2.45 4.8v12.8c.1 2 .9 3.6 2.44 4.87-1.53 1.2-2.34 2.8-2.45 4.8V676.64c.42 7.04 14.2 10.8 27.2 10.8s26.77-3.76 27.2-10.87V663.45c-.05-1.9-.92-3.6-2.44-4.8 1.52-1.2 2.34-2.86 2.45-4.78zm-3.2 23.98c0 3.76-10.3 8-24 8-13.72 0-24-4.16-24-8v-7.35c4.9 3.67 14.64 5.67 24 5.67s19.1-2 24-5.67z" stroke="#fff" stroke-opacity="0" stroke-width="2" fill="#fff"/><path d="M1310 631.6c0 1.1-.9 2-2 2s-2-.9-2-2 .9-2 2-2 2 .9 2 2zM1310 654c0 1.1-.9 2-2 2s-2-.9-2-2 .9-2 2-2 2 .9 2 2zM1310 676.4c0 1.1-.9 2-2 2s-2-.9-2-2 .9-2 2-2 2 .9 2 2zM1331.18 669.94c-.28 0-.52-.06-.8-.22-.64-.38-.92-1.14-.72-1.85l8.98-29.95h-9.06c-.88.05-1.6-.65-1.6-1.58 0-.27.04-.54.2-.76l9.58-19.22c.28-.55.8-.87 1.44-.87h20.8c.9-.07 1.6.64 1.66 1.5.04.23 0 .4-.05.6l-4.1 12.26h8.97c.88.06 1.6.76 1.6 1.63 0 .43-.16.76-.44 1.08l-35.2 36.8c-.32.4-.73.56-1.25.56zm1-35.18h8.63c.53 0 .97.22 1.3.6.27.44.4.93.23 1.42l-7.7 25.6 28.03-29.25h-7.46c-.88 0-1.64-.65-1.68-1.53 0-.2 0-.43.08-.6l4.1-12.3h-17.62z" stroke="#fff" stroke-opacity="0" stroke-width="2" fill="#fff"/><use xlink:href="#D" transform="matrix(1,0,0,1,1243.9962525695266,716.568569933909) translate(8.599999999999994 14.4)"/><use xlink:href="#E" transform="matrix(1,0,0,1,1243.9962525695266,716.568569933909) translate(79.55 14.4)"/><path d="M514 472.82h120v120H514v-120z" stroke="#fff" stroke-opacity="0" fill="#693cc5"/><path d="M587.82 569.9l-2.86-1.5c1.62-3.02 2.7-5.73 3.65-9.04l3.08.9c-1 3.54-2.15 6.4-3.86 9.64zm2.97-29.3c-.58-9.4-3.24-17.24-8.44-25.07l2.67-1.73c5.54 8.28 8.36 16.64 8.97 26.58zM569.7 502c-2.46-1.8-4.67-3.16-7.4-4.52l1.46-2.86c2.9 1.43 5.26 2.86 7.86 4.82zM582.8 544.66c-5.32-5.26-10.82-8.72-17.88-11.2l1-3.04c7.52 2.64 13.4 6.3 19.04 11.92zM595.98 563.77c-.6-1.6-1.27-3.07-2-4.56l2.87-1.42c.82 1.66 1.46 3.08 2.12 4.8z" stroke="#fff" stroke-opacity="0" fill="#fff"/><path d="M586.9 570.66l-1.02-3.02c4.04-1.36 7.26-3.1 10.62-5.7l1.96 2.5c-3.66 2.86-7.16 4.75-11.56 6.22zM536.04 532.02l-.73-3.1c3.75-.92 7-1.34 10.84-1.42l.08 3.2c-3.6.07-6.67.47-10.18 1.32zM562.28 521.85l-2.68-1.75c2.47-4.02 5.06-7.1 8.6-10.24l2.1 2.43c-3.3 2.9-5.72 5.8-8.02 9.55zM586.08 502.87l-1.1-3c2.54-.95 4.76-1.58 7.42-2.12l.6 3.2c-2.5.47-4.56 1.05-6.92 1.92zM554.4 567.22c-2.75-6.37-4-12.24-4.12-19.2.06-2.67.36-4.95 1-7.54.1-.57.23-1.14.35-1.74l3.2.63c-.1.6-.24 1.17-.35 1.77-.6 2.36-.87 4.44-.93 6.9.07 6.5 1.24 12.04 3.8 18.05z" stroke="#fff" stroke-opacity="0" fill="#fff"/><path d="M574 572.82c-22.08 0-40-17.94-40-39.97 0-.88 0-1.6.08-2.48 1.04-17.06 12.08-31 28.47-35.9 10.8-3.2 21.2-2.07 30.96 3.46 19.3 10.8 26.17 35.16 15.37 54.47-2.72 4.88-5.92 8.65-10.4 12.1-7.36 5.6-15.2 8.32-24.48 8.32zm0-76.82c-3.77 0-6.97.48-10.5 1.6-15.1 4.57-25.26 17.3-26.22 33 0 .8-.08 1.53-.08 2.25 0 20.27 16.48 36.77 36.8 36.77 4.23 0 7.83-.56 11.83-2 4.08-1.36 7.28-3.05 10.64-5.7 9.36-7.2 14.32-17.3 14.32-29.07 0-20.34-16.5-36.85-36.8-36.85z" stroke="#fff" stroke-opacity="0" fill="#fff"/><path d="M577.88 514.3c-3.9 0-7.08-3.16-7.08-7.08 0-3.9 3.17-7.08 7.08-7.08 3.92 0 7.1 3.17 7.1 7.08v.02c0 3.9-3.17 7.07-7.08 7.07h-.02zm0-10.95c-2.14 0-3.88 1.75-3.88 3.9 0 2.14 1.74 3.87 3.88 3.87 2.14 0 3.9-1.73 3.9-3.88 0-2.14-1.76-3.9-3.9-3.9zM556.06 536.63c-3.9 0-7.1-3.17-7.1-7.1 0-3.9 3.2-7.07 7.1-7.07 3.9 0 7.1 3.17 7.1 7.08-.03 3.92-3.2 7.08-7.1 7.1zm0-10.97c-2.14 0-3.88 1.74-3.88 3.88 0 2.15 1.74 3.9 3.88 3.9 2.14 0 3.88-1.75 3.88-3.9v-.02c0-2.16-1.74-3.9-3.88-3.9zM591.24 557.14c-3.9.02-7.1-3.16-7.1-7.07 0-3.9 3.16-7.1 7.07-7.1 3.93-.02 7.1 3.16 7.12 7.07v.03c0 3.9-3.16 7.07-7.08 7.07zm0-10.95c-2.15 0-3.9 1.73-3.9 3.87 0 2.16 1.75 3.9 3.9 3.9 2.13 0 3.87-1.74 3.87-3.9 0-2.14-1.72-3.88-3.86-3.88z" stroke="#fff" stroke-opacity="0" fill="#fff"/><use xlink:href="#F" transform="matrix(1,0,0,1,483.99625256952663,601.8248357773045) translate(15.625 14.4)"/><use xlink:href="#G" transform="matrix(1,0,0,1,483.99625256952663,601.8248357773045) translate(109.42500000000001 14.4)"/><use xlink:href="#H" transform="matrix(1,0,0,1,483.99625256952663,601.8248357773045) translate(1.1500000000000057 36)"/><use xlink:href="#I" transform="matrix(1,0,0,1,483.99625256952663,601.8248357773045) translate(88.00000000000001 36)"/><use xlink:href="#J" transform="matrix(1,0,0,1,483.99625256952663,601.8248357773045) translate(113.00000000000001 36)"/><use xlink:href="#K" transform="matrix(1,0,0,1,483.99625256952663,601.8248357773045) translate(20.049999999999997 57.6)"/><use xlink:href="#L" transform="matrix(1,0,0,1,483.99625256952663,601.8248357773045) translate(35.05 57.6)"/><use xlink:href="#M" transform="matrix(1,0,0,1,483.99625256952663,601.8248357773045) translate(82 57.6)"/><use xlink:href="#N" transform="matrix(1,0,0,1,483.99625256952663,601.8248357773045) translate(111.95 57.6)"/><use xlink:href="#O" transform="matrix(1,0,0,1,483.99625256952663,601.8248357773045) translate(13.625 79.20000000000002)"/><use xlink:href="#P" transform="matrix(1,0,0,1,483.99625256952663,601.8248357773045) translate(82.47500000000001 79.20000000000002)"/><use xlink:href="#Q" transform="matrix(1,0,0,1,483.99625256952663,601.8248357773045) translate(107.47500000000001 79.20000000000002)"/><path d="M573.34 360c-10.84 0-28.1-2.46-28.32-9.1l-7.72-57.2c-.15-.97.43-1.86 1.37-2.06.94-.14 1.88.47 2.1 1.43.8 3.28 13.64 7.86 32.64 7.86s31.86-4.58 32.66-7.86c.2-.96 1.15-1.57 2.1-1.43.93.2 1.5 1.1 1.37 2.05l-7.88 57.2c0 2.26-2.1 4.18-6 5.75-1.8.68-3.4 1.16-5.27 1.57-5.92 1.3-10.97 1.78-17.04 1.78zm-31.93-61.66l6.95 52.3v.2c0 2.05 9.75 5.8 24.92 5.8 5.77.08 10.6-.47 16.25-1.63 1.73-.4 3.18-.88 4.84-1.56 3.1-1.23 3.83-2.33 3.83-2.67v-.2l7-52.23c-6.58 3.9-19.8 6-31.93 6-12.14 0-25.28-2.1-31.86-6z" stroke="#fff" stroke-opacity="0" fill="#3f8624"/><path d="M573.35 304.32c-16.15 0-34.25-3.65-35.98-10.4V292.98v-.23c0-7.52 19.04-12.77 36.13-12.77 17.08 0 35.98 5.25 35.98 12.77v.22l-.08.7v.2c-1.87 6.77-19.97 10.42-36.05 10.42zm-32.66-11.2c1.07 3.3 13.83 7.8 32.65 7.8s31.58-4.5 32.66-7.8v-.45c-.2-3.3-13.6-9.26-32.65-9.26-19.03 0-32.52 5.96-32.73 9.27zM609.53 327.86c-8.08 0-25.83-8-36.93-13.46l1.5-3.06c15.3 7.53 33.36 14.5 36.46 13.18-.25-.48-1.4-2.02-6.83-4.97l-.25-.17 1.7-2.96.25.17c5.46 2.98 8.07 5.3 8.52 7.5.17.93-.08 1.83-.7 2.57-1.03.95-2.32 1.36-3.72 1.2z" stroke="#fff" stroke-opacity="0" fill="#3f8624"/><path d="M573.35 316.6c-2.04 0-3.7-1.66-3.7-3.7s1.66-3.7 3.7-3.7 3.7 1.66 3.7 3.7-1.66 3.7-3.7 3.7zm0-4c-.18 0-.3.14-.3.3 0 .33.6.33.6 0v-.04c0-.16-.14-.28-.3-.28z" stroke="#fff" stroke-opacity="0" fill="#3f8624"/><g><use xlink:href="#R" transform="matrix(1,0,0,1,507.2962525695267,369) translate(29.574999999999996 14.4)"/><use xlink:href="#S" transform="matrix(1,0,0,1,507.2962525695267,369) translate(6.049999999999997 36)"/><use xlink:href="#T" transform="matrix(1,0,0,1,507.2962525695267,369) translate(110.95 36)"/><use xlink:href="#U" transform="matrix(1,0,0,1,507.2962525695267,369) translate(57.5 57.6)"/></g><path d="M1274 363.32h120v120h-120v-120z" stroke="#fff" stroke-opacity="0" fill="#1c7b68"/><path d="M1343.47 383.34h-46.1c-1.85 0-3.37 1.52-3.37 3.36v30.07c0 1.83 1.52 3.35 3.36 3.35h6.16l.08.16v8.64c.08.96.64 1.84 1.6 2.16.32.16.56.16.88.16.73 0 1.3-.16 1.77-.64l8.48-8.32v-4.48l-9.6 9.36v-6.72c.16-.96-.16-1.76-.73-2.48-.64-.63-1.52-1.03-2.4-1.03h-6.24c-.08 0-.16-.08-.16-.16V386.7c0-.08.08-.16.16-.16h46.1c.1 0 .17.08.17.16v25.43h3.2V386.7c0-1.84-1.52-3.36-3.36-3.36zm-14.25 11.2H1302v-3.2h27.22zm9.6 0h-6.4v-3.2h6.4zm-22.4 8H1302v-3.2h14.4zm22.4 0h-17.6v-3.2h17.6zm-14.4 8H1302v-3.2h22.42zm9.6 0h-6.4v-3.2h6.4zm24.74 52.77c-.56 0-1.12-.23-1.6-.63l-10.8-10.56h-23.46c-1.84-.07-3.3-1.6-3.3-3.43v-30.8c0-2.22 1.78-4.14 4.1-4.14h47.15c1.76 0 3.2 1.44 3.2 3.2V448.75c0 1.84-1.44 3.36-3.28 3.36h-9.45c-.08.1-.16.17-.16.25v8.48c.08.96-.48 1.84-1.44 2.32-.32.08-.56.16-.96.16zm-.72-2.47zm-11.53-11.92c.73 0 1.45.33 2.02.8l9.6 9.37v-6.72c0-1.92 1.44-3.36 3.28-3.44h9.37c.08 0 .16-.07.16-.15v-31.58c0-.16-.16-.24-.32-.24h-47.06c-.48 0-.72.24-.72.8v30.86c0 .15.24.3.32.3zm1.37-3.2h-2.08c-.57 0-1.13-.23-1.37-.8l-.88-1.6c-.56-.15-1.04-.4-1.6-.63l-1.68.56c-.64.16-1.2 0-1.6-.4l-1.52-1.5c-.4-.4-.56-.97-.4-1.6l.56-1.7c-.3-.55-.55-1.1-.7-1.75l-1.6-.8c-.57-.24-.9-.8-.9-1.44v-2.08c0-.56.33-1.12.9-1.36l1.6-.88c.23-.56.4-1.12.7-1.68l-.55-1.68c-.16-.64 0-1.2.4-1.6l1.44-1.52c.47-.4 1.03-.56 1.6-.4l1.75.56c.48-.32.96-.64 1.6-.88l.88-1.6c.24-.56.8-.88 1.36-.88h2.07c.65 0 1.2.32 1.45.88l.8 1.6c.64.16 1.12.4 1.76.72l1.6-.56c.56-.16 1.12 0 1.6.4l1.44 1.44c.4.48.56 1.04.4 1.6l-.56 1.76c.32.56.64 1.12.8 1.76l1.6.88c.56.32.88.8.88 1.44v2.08c0 .56-.32 1.04-.88 1.28l-1.6.8c-.16.64-.4 1.12-.72 1.68l.56 1.76c.24.56.08 1.12-.32 1.6l-1.52 1.43c-.4.47-.96.63-1.6.4l-1.68-.57c-.56.32-1.04.48-1.6.72l-.8 1.6c-.32.64-.88 1.04-1.6.96zm-1.04-3.2h.08l.73-1.34c.16-.4.56-.72 1.05-.8.8-.24 1.44-.48 2.08-.96.48-.24.88-.24 1.36-.16l1.44.48.08-.08-.48-1.44c-.08-.48-.08-.88.16-1.28.48-.72.72-1.36.96-2.24.08-.4.4-.8.8-1.04l1.36-.64v-.16l-1.36-.72c-.48-.24-.72-.56-.88-1.04-.16-.8-.4-1.44-.88-2.16-.24-.4-.32-.88-.16-1.36l.48-1.44-.08-.08-1.44.48c-.4.16-.88.08-1.28-.16-.72-.4-1.44-.72-2.24-.88-.5-.16-.8-.4-1.05-.88l-.64-1.28h-.15l-.64 1.28c-.23.4-.55.72-1.03.8-.8.24-1.52.56-2.24.96-.48.24-.88.32-1.36.16l-1.44-.48-.08.08.48 1.44c.16.48.08.96-.16 1.36-.48.72-.72 1.36-.88 2.16-.17.48-.4.88-.9 1.04l-1.27.72v.16l1.28.64c.5.24.8.64.9 1.12.15.88.47 1.52.95 2.16.24.4.24.88.16 1.36l-.47 1.44.08.08 1.45-.48c.48-.16.88-.08 1.28.16.8.4 1.44.72 2.24.88.48.16.8.4 1.04.8zm0-4.78c-2.72 0-4.8-2.16-4.8-4.8 0-2.64 2.08-4.8 4.8-4.8 2.65 0 4.73 2.16 4.73 4.8 0 2.64-2.08 4.8-4.73 4.8zm0-6.72h-.08c-1.04 0-1.92.88-1.92 1.92 0 1.12.88 2 2 1.92 1.04 0 1.93-.88 1.93-1.92s-.9-1.92-1.93-1.92z" stroke="#fff" stroke-opacity="0" fill="#fff"/><g><use xlink:href="#D" transform="matrix(1,0,0,1,1243.9962525695266,492.32260220812947) translate(40.025 14.4)"/><use xlink:href="#V" transform="matrix(1,0,0,1,1243.9962525695266,492.32260220812947) translate(110.975 14.4)"/></g><path d="M1150.88 423.32c0 .28-.22.5-.5.5s-.5-.22-.5-.5c0-.27.22-.5.5-.5s.5.23.5.5zm2 0c0 .28-.24.5-.5.5-.3 0-.5-.22-.5-.5 0-.27.2-.5.5-.5.26 0 .5.23.5.5zm1.97 0c0 .28-.22.5-.5.5-.27 0-.5-.22-.5-.5 0-.27.23-.5.5-.5.28 0 .5.23.5.5zm2 0c0 .28-.24.5-.5.5-.3 0-.5-.22-.5-.5 0-.27.2-.5.5-.5.26 0 .5.23.5.5zm1.97 0c0 .28-.22.5-.5.5-.27 0-.5-.22-.5-.5 0-.27.23-.5.5-.5.28 0 .5.23.5.5zm2 0c0 .28-.23.5-.5.5-.3 0-.5-.22-.5-.5 0-.27.2-.5.5-.5.27 0 .5.23.5.5zm1.97 0c0 .28-.23.5-.5.5-.28 0-.5-.22-.5-.5 0-.27.22-.5.5-.5.27 0 .5.23.5.5zm1.98 0c0 .28-.22.5-.5.5s-.5-.22-.5-.5c0-.27.22-.5.5-.5s.5.23.5.5zm2 0c0 .28-.24.5-.5.5-.3 0-.5-.22-.5-.5 0-.27.2-.5.5-.5.26 0 .5.23.5.5zm1.97 0c0 .28-.22.5-.5.5-.27 0-.5-.22-.5-.5 0-.27.23-.5.5-.5.28 0 .5.23.5.5zm2 0c0 .28-.24.5-.5.5-.3 0-.5-.22-.5-.5 0-.27.2-.5.5-.5.26 0 .5.23.5.5zm1.97 0c0 .28-.22.5-.5.5-.27 0-.5-.22-.5-.5 0-.27.23-.5.5-.5.28 0 .5.23.5.5zm2 0c0 .28-.23.5-.5.5-.3 0-.5-.22-.5-.5 0-.27.2-.5.5-.5.27 0 .5.23.5.5zm1.98 0c0 .28-.23.5-.5.5-.28 0-.5-.22-.5-.5 0-.27.22-.5.5-.5.27 0 .5.23.5.5zm1.98 0c0 .28-.22.5-.5.5s-.5-.22-.5-.5c0-.27.22-.5.5-.5s.5.23.5.5zm2 0c0 .28-.24.5-.5.5-.3 0-.5-.22-.5-.5 0-.27.2-.5.5-.5.26 0 .5.23.5.5zm1.97 0c0 .28-.22.5-.5.5-.27 0-.5-.22-.5-.5 0-.27.23-.5.5-.5.28 0 .5.23.5.5zm2 0c0 .28-.24.5-.5.5-.3 0-.5-.22-.5-.5 0-.27.2-.5.5-.5.26 0 .5.23.5.5zm1.97 0c0 .28-.22.5-.5.5-.27 0-.5-.22-.5-.5 0-.27.23-.5.5-.5.28 0 .5.23.5.5zm2 0c0 .28-.23.5-.5.5-.3 0-.5-.22-.5-.5 0-.27.2-.5.5-.5.27 0 .5.23.5.5zm1.98 0c0 .28-.23.5-.5.5-.28 0-.5-.22-.5-.5 0-.27.22-.5.5-.5.27 0 .5.23.5.5zm1.98 0c0 .28-.22.5-.5.5-.27 0-.5-.22-.5-.5 0-.27.23-.5.5-.5.28 0 .5.23.5.5zm2 0c0 .28-.24.5-.5.5-.3 0-.5-.22-.5-.5 0-.27.2-.5.5-.5.26 0 .5.23.5.5zm1.97 0c0 .28-.22.5-.5.5-.27 0-.5-.22-.5-.5 0-.27.23-.5.5-.5.28 0 .5.23.5.5zm2 0c0 .28-.23.5-.5.5-.3 0-.5-.22-.5-.5 0-.27.2-.5.5-.5.27 0 .5.23.5.5zm1.97 0c0 .28-.22.5-.5.5-.27 0-.5-.22-.5-.5 0-.27.23-.5.5-.5.28 0 .5.23.5.5zm2 0c0 .28-.23.5-.5.5-.3 0-.5-.22-.5-.5 0-.27.2-.5.5-.5.27 0 .5.23.5.5zm1.98 0c0 .28-.23.5-.5.5-.28 0-.5-.22-.5-.5 0-.27.22-.5.5-.5.27 0 .5.23.5.5zm1.98 0c0 .28-.22.5-.5.5-.27 0-.5-.22-.5-.5 0-.27.23-.5.5-.5.28 0 .5.23.5.5zm2 0c0 .28-.24.5-.5.5-.3 0-.5-.22-.5-.5 0-.27.2-.5.5-.5.26 0 .5.23.5.5zm1.97 0c0 .28-.22.5-.5.5-.27 0-.5-.22-.5-.5 0-.27.23-.5.5-.5.28 0 .5.23.5.5zm2 0c0 .28-.23.5-.5.5-.3 0-.5-.22-.5-.5 0-.27.2-.5.5-.5.27 0 .5.23.5.5zm1.98 0c0 .28-.23.5-.5.5-.28 0-.5-.22-.5-.5 0-.27.22-.5.5-.5.27 0 .5.23.5.5zm1.98 0c0 .28-.2.5-.5.5-.27 0-.5-.22-.5-.5 0-.27.23-.5.5-.5.3 0 .5.23.5.5zm2 0c0 .28-.23.5-.5.5-.28 0-.5-.22-.5-.5 0-.27.22-.5.5-.5.27 0 .5.23.5.5zm1.98 0c0 .28-.22.5-.5.5-.27 0-.5-.22-.5-.5 0-.27.23-.5.5-.5.28 0 .5.23.5.5zm2 0c0 .28-.24.5-.5.5-.3 0-.5-.22-.5-.5 0-.27.2-.5.5-.5.26 0 .5.23.5.5zm1.97 0c0 .28-.22.5-.5.5-.27 0-.5-.22-.5-.5 0-.27.23-.5.5-.5.28 0 .5.23.5.5zm2 0c0 .28-.23.5-.5.5-.3 0-.5-.22-.5-.5 0-.27.2-.5.5-.5.27 0 .5.23.5.5zm1.98 0c0 .28-.23.5-.5.5-.28 0-.5-.22-.5-.5 0-.27.22-.5.5-.5.27 0 .5.23.5.5zm1.98 0c0 .28-.2.5-.5.5-.26 0-.5-.22-.5-.5 0-.27.24-.5.5-.5.3 0 .5.23.5.5zm2 0c0 .28-.23.5-.5.5-.28 0-.5-.22-.5-.5 0-.27.22-.5.5-.5.27 0 .5.23.5.5zm1.98 0c0 .28-.22.5-.5.5-.27 0-.5-.22-.5-.5 0-.27.23-.5.5-.5.28 0 .5.23.5.5zm2 0c0 .28-.24.5-.5.5-.3 0-.5-.22-.5-.5 0-.27.2-.5.5-.5.26 0 .5.23.5.5zm1.97 0c0 .28-.22.5-.5.5-.27 0-.5-.22-.5-.5 0-.27.23-.5.5-.5.28 0 .5.23.5.5zm2 0c0 .28-.23.5-.5.5-.3 0-.5-.22-.5-.5 0-.27.2-.5.5-.5.27 0 .5.23.5.5zm1.98 0c0 .28-.23.5-.5.5-.28 0-.5-.22-.5-.5 0-.27.22-.5.5-.5.27 0 .5.23.5.5zm1.98 0c0 .28-.2.5-.5.5-.26 0-.5-.22-.5-.5 0-.27.24-.5.5-.5.3 0 .5.23.5.5zm2 0c0 .28-.23.5-.5.5-.28 0-.5-.22-.5-.5 0-.27.22-.5.5-.5.27 0 .5.23.5.5zm1.98 0c0 .28-.22.5-.5.5-.27 0-.5-.22-.5-.5 0-.27.23-.5.5-.5.28 0 .5.23.5.5zm2 0c0 .28-.23.5-.5.5-.3 0-.5-.22-.5-.5 0-.27.2-.5.5-.5.27 0 .5.23.5.5zm1.98 0c0 .28-.23.5-.5.5-.28 0-.5-.22-.5-.5 0-.27.22-.5.5-.5.27 0 .5.23.5.5zm1.98 0c0 .28-.22.5-.5.5s-.5-.22-.5-.5c0-.27.22-.5.5-.5s.5.23.5.5zm2 0c0 .28-.24.5-.5.5-.3 0-.5-.22-.5-.5 0-.27.2-.5.5-.5.26 0 .5.23.5.5z" fill="#333"/><path d="M1135.6 423.32l14.28-4.63v9.26z" stroke="#333" fill="#fff"/><path d="M1272.38 423.32l-14.27 4.64v-9.27z" stroke="#333" fill="#333"/><path d="M1150.88 647.57c0 .27-.22.5-.5.5s-.5-.23-.5-.5c0-.28.22-.5.5-.5s.5.22.5.5zm2 0c0 .27-.24.5-.5.5-.3 0-.5-.23-.5-.5 0-.28.2-.5.5-.5.26 0 .5.22.5.5zm1.97 0c0 .27-.22.5-.5.5-.27 0-.5-.23-.5-.5 0-.28.23-.5.5-.5.28 0 .5.22.5.5zm2 0c0 .27-.24.5-.5.5-.3 0-.5-.23-.5-.5 0-.28.2-.5.5-.5.26 0 .5.22.5.5zm1.97 0c0 .27-.22.5-.5.5-.27 0-.5-.23-.5-.5 0-.28.23-.5.5-.5.28 0 .5.22.5.5zm2 0c0 .27-.23.5-.5.5-.3 0-.5-.23-.5-.5 0-.28.2-.5.5-.5.27 0 .5.22.5.5zm1.97 0c0 .27-.23.5-.5.5-.28 0-.5-.23-.5-.5 0-.28.22-.5.5-.5.27 0 .5.22.5.5zm1.98 0c0 .27-.22.5-.5.5s-.5-.23-.5-.5c0-.28.22-.5.5-.5s.5.22.5.5zm2 0c0 .27-.24.5-.5.5-.3 0-.5-.23-.5-.5 0-.28.2-.5.5-.5.26 0 .5.22.5.5zm1.97 0c0 .27-.22.5-.5.5-.27 0-.5-.23-.5-.5 0-.28.23-.5.5-.5.28 0 .5.22.5.5zm2 0c0 .27-.24.5-.5.5-.3 0-.5-.23-.5-.5 0-.28.2-.5.5-.5.26 0 .5.22.5.5zm1.97 0c0 .27-.22.5-.5.5-.27 0-.5-.23-.5-.5 0-.28.23-.5.5-.5.28 0 .5.22.5.5zm2 0c0 .27-.23.5-.5.5-.3 0-.5-.23-.5-.5 0-.28.2-.5.5-.5.27 0 .5.22.5.5zm1.98 0c0 .27-.23.5-.5.5-.28 0-.5-.23-.5-.5 0-.28.22-.5.5-.5.27 0 .5.22.5.5zm1.98 0c0 .27-.22.5-.5.5s-.5-.23-.5-.5c0-.28.22-.5.5-.5s.5.22.5.5zm2 0c0 .27-.24.5-.5.5-.3 0-.5-.23-.5-.5 0-.28.2-.5.5-.5.26 0 .5.22.5.5zm1.97 0c0 .27-.22.5-.5.5-.27 0-.5-.23-.5-.5 0-.28.23-.5.5-.5.28 0 .5.22.5.5zm2 0c0 .27-.24.5-.5.5-.3 0-.5-.23-.5-.5 0-.28.2-.5.5-.5.26 0 .5.22.5.5zm1.97 0c0 .27-.22.5-.5.5-.27 0-.5-.23-.5-.5 0-.28.23-.5.5-.5.28 0 .5.22.5.5zm2 0c0 .27-.23.5-.5.5-.3 0-.5-.23-.5-.5 0-.28.2-.5.5-.5.27 0 .5.22.5.5zm1.98 0c0 .27-.23.5-.5.5-.28 0-.5-.23-.5-.5 0-.28.22-.5.5-.5.27 0 .5.22.5.5zm1.98 0c0 .27-.22.5-.5.5-.27 0-.5-.23-.5-.5 0-.28.23-.5.5-.5.28 0 .5.22.5.5zm2 0c0 .27-.24.5-.5.5-.3 0-.5-.23-.5-.5 0-.28.2-.5.5-.5.26 0 .5.22.5.5zm1.97 0c0 .27-.22.5-.5.5-.27 0-.5-.23-.5-.5 0-.28.23-.5.5-.5.28 0 .5.22.5.5zm2 0c0 .27-.23.5-.5.5-.3 0-.5-.23-.5-.5 0-.28.2-.5.5-.5.27 0 .5.22.5.5zm1.97 0c0 .27-.22.5-.5.5-.27 0-.5-.23-.5-.5 0-.28.23-.5.5-.5.28 0 .5.22.5.5zm2 0c0 .27-.23.5-.5.5-.3 0-.5-.23-.5-.5 0-.28.2-.5.5-.5.27 0 .5.22.5.5zm1.98 0c0 .27-.23.5-.5.5-.28 0-.5-.23-.5-.5 0-.28.22-.5.5-.5.27 0 .5.22.5.5zm1.98 0c0 .27-.22.5-.5.5-.27 0-.5-.23-.5-.5 0-.28.23-.5.5-.5.28 0 .5.22.5.5zm2 0c0 .27-.24.5-.5.5-.3 0-.5-.23-.5-.5 0-.28.2-.5.5-.5.26 0 .5.22.5.5zm1.97 0c0 .27-.22.5-.5.5-.27 0-.5-.23-.5-.5 0-.28.23-.5.5-.5.28 0 .5.22.5.5zm2 0c0 .27-.23.5-.5.5-.3 0-.5-.23-.5-.5 0-.28.2-.5.5-.5.27 0 .5.22.5.5zm1.98 0c0 .27-.23.5-.5.5-.28 0-.5-.23-.5-.5 0-.28.22-.5.5-.5.27 0 .5.22.5.5zm1.98 0c0 .27-.2.5-.5.5-.27 0-.5-.23-.5-.5 0-.28.23-.5.5-.5.3 0 .5.22.5.5zm2 0c0 .27-.23.5-.5.5-.28 0-.5-.23-.5-.5 0-.28.22-.5.5-.5.27 0 .5.22.5.5zm1.98 0c0 .27-.22.5-.5.5-.27 0-.5-.23-.5-.5 0-.28.23-.5.5-.5.28 0 .5.22.5.5zm2 0c0 .27-.24.5-.5.5-.3 0-.5-.23-.5-.5 0-.28.2-.5.5-.5.26 0 .5.22.5.5zm1.97 0c0 .27-.22.5-.5.5-.27 0-.5-.23-.5-.5 0-.28.23-.5.5-.5.28 0 .5.22.5.5zm2 0c0 .27-.23.5-.5.5-.3 0-.5-.23-.5-.5 0-.28.2-.5.5-.5.27 0 .5.22.5.5zm1.98 0c0 .27-.23.5-.5.5-.28 0-.5-.23-.5-.5 0-.28.22-.5.5-.5.27 0 .5.22.5.5zm1.98 0c0 .27-.2.5-.5.5-.26 0-.5-.23-.5-.5 0-.28.24-.5.5-.5.3 0 .5.22.5.5zm2 0c0 .27-.23.5-.5.5-.28 0-.5-.23-.5-.5 0-.28.22-.5.5-.5.27 0 .5.22.5.5zm1.98 0c0 .27-.22.5-.5.5-.27 0-.5-.23-.5-.5 0-.28.23-.5.5-.5.28 0 .5.22.5.5zm2 0c0 .27-.24.5-.5.5-.3 0-.5-.23-.5-.5 0-.28.2-.5.5-.5.26 0 .5.22.5.5zm1.97 0c0 .27-.22.5-.5.5-.27 0-.5-.23-.5-.5 0-.28.23-.5.5-.5.28 0 .5.22.5.5zm2 0c0 .27-.23.5-.5.5-.3 0-.5-.23-.5-.5 0-.28.2-.5.5-.5.27 0 .5.22.5.5zm1.98 0c0 .27-.23.5-.5.5-.28 0-.5-.23-.5-.5 0-.28.22-.5.5-.5.27 0 .5.22.5.5zm1.98 0c0 .27-.2.5-.5.5-.26 0-.5-.23-.5-.5 0-.28.24-.5.5-.5.3 0 .5.22.5.5zm2 0c0 .27-.23.5-.5.5-.28 0-.5-.23-.5-.5 0-.28.22-.5.5-.5.27 0 .5.22.5.5zm1.98 0c0 .27-.22.5-.5.5-.27 0-.5-.23-.5-.5 0-.28.23-.5.5-.5.28 0 .5.22.5.5zm2 0c0 .27-.23.5-.5.5-.3 0-.5-.23-.5-.5 0-.28.2-.5.5-.5.27 0 .5.22.5.5zm1.98 0c0 .27-.23.5-.5.5-.28 0-.5-.23-.5-.5 0-.28.22-.5.5-.5.27 0 .5.22.5.5zm1.98 0c0 .27-.22.5-.5.5s-.5-.23-.5-.5c0-.28.22-.5.5-.5s.5.22.5.5zm2 0c0 .27-.24.5-.5.5-.3 0-.5-.23-.5-.5 0-.28.2-.5.5-.5.26 0 .5.22.5.5z" fill="#333"/><path d="M1135.6 647.57l14.28-4.64v9.27z" stroke="#333" fill="#fff"/><path d="M1272.38 647.57l-14.27 4.63v-9.27z" stroke="#333" fill="#333"/><path d="M910.38 532.82H962c6.62 0 12 5.38 12 12v90.75c0 6.63 5.37 12 12 12h51.6" stroke="#333" fill="none"/><path d="M895.6 532.82l14.28-4.63v9.26z" stroke="#333" fill="#fff"/><path d="M1052.38 647.57l-14.27 4.63v-9.27z" stroke="#333" fill="#333"/><path d="M910.38 532.82H962c6.62 0 12-5.37 12-12v-85.5c0-6.62 5.37-12 12-12h51.6" stroke="#333" fill="none"/><path d="M895.6 532.82l14.28-4.63v9.26z" stroke="#333" fill="#fff"/><path d="M1052.38 423.32l-14.27 4.64v-9.27z" stroke="#333" fill="#333"/><path d="M650.38 532.82H757.6" stroke="#333" fill="none"/><path d="M635.6 532.82l14.28-4.63v9.26z" stroke="#333" fill="#fff"/><path d="M772.38 532.82l-14.27 4.64v-9.27z" stroke="#333" fill="#333"/><path d="M974 229.8c0-4.42 3.58-8 8-8h224c4.4 0 8 3.58 8 8v80.4c0 4.42-3.6 8-8 8H982c-4.42 0-8-3.58-8-8z" stroke="#000" stroke-opacity="0" fill="#fff" fill-opacity="0"/><g><use xlink:href="#W" transform="matrix(1,0,0,1,978.9962525695266,226.79999999999998) translate(9.550000000000011 14.4)"/><use xlink:href="#X" transform="matrix(1,0,0,1,978.9962525695266,226.79999999999998) translate(69.50000000000001 14.4)"/><use xlink:href="#Y" transform="matrix(1,0,0,1,978.9962525695266,226.79999999999998) translate(137.5 14.4)"/><use xlink:href="#Z" transform="matrix(1,0,0,1,978.9962525695266,226.79999999999998) translate(152.5 14.4)"/><use xlink:href="#v" transform="matrix(1,0,0,1,978.9962525695266,226.79999999999998) translate(210.45 14.4)"/><use xlink:href="#aa" transform="matrix(1,0,0,1,978.9962525695266,226.79999999999998) translate(8.625 36)"/><use xlink:href="#ab" transform="matrix(1,0,0,1,978.9962525695266,226.79999999999998) translate(84.525 36)"/><use xlink:href="#ac" transform="matrix(1,0,0,1,978.9962525695266,226.79999999999998) translate(99.525 36)"/><use xlink:href="#T" transform="matrix(1,0,0,1,978.9962525695266,226.79999999999998) translate(201.375 36)"/><use xlink:href="#ad" transform="matrix(1,0,0,1,978.9962525695266,226.79999999999998) translate(8.574999999999989 57.6)"/><use xlink:href="#ae" transform="matrix(1,0,0,1,978.9962525695266,226.79999999999998) translate(38.52499999999999 57.6)"/><use xlink:href="#w" transform="matrix(1,0,0,1,978.9962525695266,226.79999999999998) translate(63.52499999999999 57.6)"/><use xlink:href="#ab" transform="matrix(1,0,0,1,978.9962525695266,226.79999999999998) translate(132.475 57.6)"/><use xlink:href="#af" transform="matrix(1,0,0,1,978.9962525695266,226.79999999999998) translate(147.475 57.6)"/><use xlink:href="#ag" transform="matrix(1,0,0,1,978.9962525695266,226.79999999999998) translate(70.025 79.20000000000002)"/><use xlink:href="#Y" transform="matrix(1,0,0,1,978.9962525695266,226.79999999999998) translate(110.97500000000001 79.20000000000002)"/><use xlink:href="#ah" transform="matrix(1,0,0,1,978.9962525695266,226.79999999999998) translate(125.97500000000001 79.20000000000002)"/></g><defs><path fill="#666" d="M199 0l-22-63H83L61 0H9l90-248h61L250 0h-51zm-33-102l-36-108c-10 38-24 72-36 108h72" id="ai"/><path fill="#666" d="M275 0h-61l-44-196L126 0H64L0-248h53L97-49l45-199h58l43 199 44-199h52" id="aj"/><path fill="#666" d="M169-182c-1-43-94-46-97-3 18 66 151 10 154 114 3 95-165 93-204 36-6-8-10-19-12-30l50-8c3 46 112 56 116 5-17-69-150-10-154-114-4-87 153-88 188-35 5 8 8 18 10 28" id="ak"/><g id="a"><use transform="matrix(0.04938271604938272,0,0,0.04938271604938272,0,0)" xlink:href="#ai"/><use transform="matrix(0.04938271604938272,0,0,0.04938271604938272,11.80246913580247,0)" xlink:href="#aj"/><use transform="matrix(0.04938271604938272,0,0,0.04938271604938272,28.543209876543205,0)" xlink:href="#ak"/></g><path fill="#666" d="M67-125c0 53 21 87 73 88 37 1 54-22 65-47l45 17C233-25 199 4 140 4 58 4 20-42 15-125 8-235 124-281 211-232c18 10 29 29 36 50l-46 12c-8-25-30-41-62-41-52 0-71 34-72 86" id="al"/><path fill="#666" d="M25 0v-261h50V0H25" id="am"/><path fill="#666" d="M110-194c64 0 96 36 96 99 0 64-35 99-97 99-61 0-95-36-95-99 0-62 34-99 96-99zm-1 164c35 0 45-28 45-65 0-40-10-65-43-65-34 0-45 26-45 65 0 36 10 65 43 65" id="an"/><path fill="#666" d="M85 4C-2 5 27-109 22-190h50c7 57-23 150 33 157 60-5 35-97 40-157h50l1 190h-47c-2-12 1-28-3-38-12 25-28 42-61 42" id="ao"/><path fill="#666" d="M88-194c31-1 46 15 58 34l-1-101h50l1 261h-48c-2-10 0-23-3-31C134-8 116 4 84 4 32 4 16-41 15-95c0-56 19-97 73-99zm17 164c33 0 40-30 41-66 1-37-9-64-41-64s-38 30-39 65c0 43 13 65 39 65" id="ap"/><g id="b"><use transform="matrix(0.04938271604938272,0,0,0.04938271604938272,0,0)" xlink:href="#al"/><use transform="matrix(0.04938271604938272,0,0,0.04938271604938272,12.790123456790125,0)" xlink:href="#am"/><use transform="matrix(0.04938271604938272,0,0,0.04938271604938272,17.7283950617284,0)" xlink:href="#an"/><use transform="matrix(0.04938271604938272,0,0,0.04938271604938272,28.54320987654322,0)" xlink:href="#ao"/><use transform="matrix(0.04938271604938272,0,0,0.04938271604938272,39.35802469135803,0)" xlink:href="#ap"/></g><path fill="#666" d="M233-177c-1 41-23 64-60 70L243 0h-38l-65-103H63V0H30v-248c88 3 205-21 203 71zM63-129c60-2 137 13 137-47 0-61-80-42-137-45v92" id="aq"/><path fill="#666" d="M100-194c63 0 86 42 84 106H49c0 40 14 67 53 68 26 1 43-12 49-29l28 8c-11 28-37 45-77 45C44 4 14-33 15-96c1-61 26-98 85-98zm52 81c6-60-76-77-97-28-3 7-6 17-6 28h103" id="ar"/><path fill="#666" d="M135-143c-3-34-86-38-87 0 15 53 115 12 119 90S17 21 10-45l28-5c4 36 97 45 98 0-10-56-113-15-118-90-4-57 82-63 122-42 12 7 21 19 24 35" id="as"/><path fill="#666" d="M100-194c62-1 85 37 85 99 1 63-27 99-86 99S16-35 15-95c0-66 28-99 85-99zM99-20c44 1 53-31 53-75 0-43-8-75-51-75s-53 32-53 75 10 74 51 75" id="at"/><path fill="#666" d="M24 0v-261h32V0H24" id="au"/><path fill="#666" d="M84 4C-5 8 30-112 23-190h32v120c0 31 7 50 39 49 72-2 45-101 50-169h31l1 190h-30c-1-10 1-25-2-33-11 22-28 36-60 37" id="av"/><path fill="#666" d="M96-169c-40 0-48 33-48 73s9 75 48 75c24 0 41-14 43-38l32 2c-6 37-31 61-74 61-59 0-76-41-82-99-10-93 101-131 147-64 4 7 5 14 7 22l-32 3c-4-21-16-35-41-35zm3 187c19-1 33 8 33 26 0 31-30 33-64 32V58c18 2 39 4 41-13 1-15-18-13-34-13L87 0h19" id="aw"/><path fill="#666" d="M141-36C126-15 110 5 73 4 37 3 15-17 15-53c-1-64 63-63 125-63 3-35-9-54-41-54-24 1-41 7-42 31l-33-3c5-37 33-52 76-52 45 0 72 20 72 64v82c-1 20 7 32 28 27v20c-31 9-61-2-59-35zM48-53c0 20 12 33 32 33 41-3 63-29 60-74-43 2-92-5-92 41zm117-205c-3 23-9 48-36 47-26-1-65-44-74 0H39c4-23 8-48 36-47s64 44 74 0h16" id="ax"/><g id="c"><use transform="matrix(0.04938271604938272,0,0,0.04938271604938272,0,0)" xlink:href="#aq"/><use transform="matrix(0.04938271604938272,0,0,0.04938271604938272,12.790123456790125,0)" xlink:href="#ar"/><use transform="matrix(0.04938271604938272,0,0,0.04938271604938272,22.66666666666667,0)" xlink:href="#as"/><use transform="matrix(0.04938271604938272,0,0,0.04938271604938272,31.555555555555557,0)" xlink:href="#at"/><use transform="matrix(0.04938271604938272,0,0,0.04938271604938272,41.4320987654321,0)" xlink:href="#au"/><use transform="matrix(0.04938271604938272,0,0,0.04938271604938272,45.333333333333336,0)" xlink:href="#av"/><use transform="matrix(0.04938271604938272,0,0,0.04938271604938272,55.20987654320988,0)" xlink:href="#aw"/><use transform="matrix(0.04938271604938272,0,0,0.04938271604938272,64.09876543209877,0)" xlink:href="#ax"/><use transform="matrix(0.04938271604938272,0,0,0.04938271604938272,73.97530864197532,0)" xlink:href="#at"/></g><path fill="#666" d="M30-248c118-7 216 8 213 122C240-48 200 0 122 0H30v-248zM63-27c89 8 146-16 146-99s-60-101-146-95v194" id="ay"/><path fill="#666" d="M190 0L58-211 59 0H30v-248h39L202-35l-2-213h31V0h-41" id="az"/><path fill="#666" d="M185-189c-5-48-123-54-124 2 14 75 158 14 163 119 3 78-121 87-175 55-17-10-28-26-33-46l33-7c5 56 141 63 141-1 0-78-155-14-162-118-5-82 145-84 179-34 5 7 8 16 11 25" id="aA"/><g id="d"><use transform="matrix(0.04938271604938272,0,0,0.04938271604938272,0,0)" xlink:href="#ay"/><use transform="matrix(0.04938271604938272,0,0,0.04938271604938272,12.790123456790125,0)" xlink:href="#az"/><use transform="matrix(0.04938271604938272,0,0,0.04938271604938272,25.58024691358025,0)" xlink:href="#aA"/></g><path fill="#a9afb8" d="M24 0v-248h195v40H76v63h132v40H76v65h150V0H24" id="aB"/><path fill="#a9afb8" d="M137-138c1-29-70-34-71-4 15 46 118 7 119 86 1 83-164 76-172 9l43-7c4 19 20 25 44 25 33 8 57-30 24-41C81-84 22-81 20-136c-2-80 154-74 161-7" id="aC"/><path fill="#a9afb8" d="M115-3C79 11 28 4 28-45v-112H4v-33h27l15-45h31v45h36v33H77v99c-1 23 16 31 38 25v30" id="aD"/><path fill="#a9afb8" d="M135-150c-39-12-60 13-60 57V0H25l-1-190h47c2 13-1 29 3 40 6-28 27-53 61-41v41" id="aE"/><path fill="#a9afb8" d="M85 4C-2 5 27-109 22-190h50c7 57-23 150 33 157 60-5 35-97 40-157h50l1 190h-47c-2-12 1-28-3-38-12 25-28 42-61 42" id="aF"/><path fill="#a9afb8" d="M133-34C117-15 103 5 69 4 32 3 11-16 11-54c-1-60 55-63 116-61 1-26-3-47-28-47-18 1-26 9-28 27l-52-2c7-38 36-58 82-57s74 22 75 68l1 82c-1 14 12 18 25 15v27c-30 8-71 5-69-32zm-48 3c29 0 43-24 42-57-32 0-66-3-65 30 0 17 8 27 23 27" id="aG"/><g id="e"><use transform="matrix(0.0728395061728395,0,0,0.0728395061728395,0,0)" xlink:href="#aB"/><use transform="matrix(0.0728395061728395,0,0,0.0728395061728395,17.48148148148148,0)" xlink:href="#aC"/><use transform="matrix(0.0728395061728395,0,0,0.0728395061728395,32.04938271604938,0)" xlink:href="#aD"/><use transform="matrix(0.0728395061728395,0,0,0.0728395061728395,40.717283950617286,0)" xlink:href="#aE"/><use transform="matrix(0.0728395061728395,0,0,0.0728395061728395,50.91481481481481,0)" xlink:href="#aF"/><use transform="matrix(0.0728395061728395,0,0,0.0728395061728395,66.86666666666666,0)" xlink:href="#aD"/><use transform="matrix(0.0728395061728395,0,0,0.0728395061728395,75.53456790123457,0)" xlink:href="#aF"/><use transform="matrix(0.0728395061728395,0,0,0.0728395061728395,91.48641975308642,0)" xlink:href="#aE"/><use transform="matrix(0.0728395061728395,0,0,0.0728395061728395,101.68395061728395,0)" xlink:href="#aG"/></g><path fill="#a9afb8" d="M169-182c-1-43-94-46-97-3 18 66 151 10 154 114 3 95-165 93-204 36-6-8-10-19-12-30l50-8c3 46 112 56 116 5-17-69-150-10-154-114-4-87 153-88 188-35 5 8 8 18 10 28" id="aH"/><path fill="#a9afb8" d="M185-48c-13 30-37 53-82 52C43 2 14-33 14-96s30-98 90-98c62 0 83 45 84 108H66c0 31 8 55 39 56 18 0 30-7 34-22zm-45-69c5-46-57-63-70-21-2 6-4 13-4 21h74" id="aI"/><path fill="#a9afb8" d="M128 0H69L1-190h53L99-40l48-150h52" id="aJ"/><path fill="#a9afb8" d="M25 0v-261h50V0H25" id="aK"/><g id="f"><use transform="matrix(0.0728395061728395,0,0,0.0728395061728395,0,0)" xlink:href="#aH"/><use transform="matrix(0.0728395061728395,0,0,0.0728395061728395,17.48148148148148,0)" xlink:href="#aI"/><use transform="matrix(0.0728395061728395,0,0,0.0728395061728395,32.04938271604938,0)" xlink:href="#aE"/><use transform="matrix(0.0728395061728395,0,0,0.0728395061728395,42.24691358024691,0)" xlink:href="#aJ"/><use transform="matrix(0.0728395061728395,0,0,0.0728395061728395,56.8148148148148,0)" xlink:href="#aI"/><use transform="matrix(0.0728395061728395,0,0,0.0728395061728395,71.38271604938271,0)" xlink:href="#aE"/><use transform="matrix(0.0728395061728395,0,0,0.0728395061728395,81.58024691358024,0)" xlink:href="#aK"/><use transform="matrix(0.0728395061728395,0,0,0.0728395061728395,88.86419753086419,0)" xlink:href="#aI"/><use transform="matrix(0.0728395061728395,0,0,0.0728395061728395,103.43209876543209,0)" xlink:href="#aC"/><use transform="matrix(0.0728395061728395,0,0,0.0728395061728395,117.99999999999999,0)" xlink:href="#aC"/></g><path fill="#a9afb8" d="M199 0l-22-63H83L61 0H9l90-248h61L250 0h-51zm-33-102l-36-108c-10 38-24 72-36 108h72" id="aL"/><path fill="#a9afb8" d="M275 0h-61l-44-196L126 0H64L0-248h53L97-49l45-199h58l43 199 44-199h52" id="aM"/><g id="g"><use transform="matrix(0.0728395061728395,0,0,0.0728395061728395,0,0)" xlink:href="#aL"/><use transform="matrix(0.0728395061728395,0,0,0.0728395061728395,17.40864197530864,0)" xlink:href="#aM"/><use transform="matrix(0.0728395061728395,0,0,0.0728395061728395,42.10123456790124,0)" xlink:href="#aH"/></g><path fill="#a9afb8" d="M67-93c0 74 22 123 53 168H70C40 30 18-18 18-93s22-123 52-168h50c-32 44-53 94-53 168" id="aN"/><path fill="#a9afb8" d="M182-182c0 78-84 86-111 141h115V0H12c-6-101 99-100 120-180 1-22-12-31-33-32-23 0-32 14-35 34l-49-3c5-45 32-70 84-70 51 0 83 22 83 69" id="aO"/><path fill="#a9afb8" d="M101-251c68 0 84 54 84 127C185-50 166 4 99 4S15-52 14-124c-1-75 17-127 87-127zm-1 216c37-5 36-46 36-89s4-89-36-89c-39 0-36 45-36 89 0 43-3 85 36 89" id="aP"/><path fill="#a9afb8" d="M23 0v-37h61v-169l-59 37v-38l62-41h46v211h57V0H23" id="aQ"/><path fill="#a9afb8" d="M102-93c0 74-22 123-52 168H0C30 29 54-18 53-93c0-74-22-123-53-168h50c30 45 52 94 52 168" id="aR"/><g id="h"><use transform="matrix(0.0728395061728395,0,0,0.0728395061728395,0,0)" xlink:href="#aN"/><use transform="matrix(0.0728395061728395,0,0,0.0728395061728395,8.667901234567902,0)" xlink:href="#aO"/><use transform="matrix(0.0728395061728395,0,0,0.0728395061728395,23.235802469135802,0)" xlink:href="#aP"/><use transform="matrix(0.0728395061728395,0,0,0.0728395061728395,37.803703703703704,0)" xlink:href="#aO"/><use transform="matrix(0.0728395061728395,0,0,0.0728395061728395,52.3716049382716,0)" xlink:href="#aQ"/><use transform="matrix(0.0728395061728395,0,0,0.0728395061728395,66.9395061728395,0)" xlink:href="#aR"/></g><path fill="#a9afb8" d="M212-179c-10-28-35-45-73-45-59 0-87 40-87 99 0 60 29 101 89 101 43 0 62-24 78-52l27 14C228-24 195 4 139 4 59 4 22-46 18-125c-6-104 99-153 187-111 19 9 31 26 39 46" id="aS"/><path fill="#a9afb8" d="M24 0v-261h32V0H24" id="aT"/><path fill="#a9afb8" d="M141-36C126-15 110 5 73 4 37 3 15-17 15-53c-1-64 63-63 125-63 3-35-9-54-41-54-24 1-41 7-42 31l-33-3c5-37 33-52 76-52 45 0 72 20 72 64v82c-1 20 7 32 28 27v20c-31 9-61-2-59-35zM48-53c0 20 12 33 32 33 41-3 63-29 60-74-43 2-92-5-92 41" id="aU"/><path fill="#a9afb8" d="M84 4C-5 8 30-112 23-190h32v120c0 31 7 50 39 49 72-2 45-101 50-169h31l1 190h-30c-1-10 1-25-2-33-11 22-28 36-60 37" id="aV"/><path fill="#a9afb8" d="M85-194c31 0 48 13 60 33l-1-100h32l1 261h-30c-2-10 0-23-3-31C134-8 116 4 85 4 32 4 16-35 15-94c0-66 23-100 70-100zm9 24c-40 0-46 34-46 75 0 40 6 74 45 74 42 0 51-32 51-76 0-42-9-74-50-73" id="aW"/><path fill="#a9afb8" d="M24-231v-30h32v30H24zM24 0v-190h32V0H24" id="aX"/><path fill="#a9afb8" d="M100-194c62-1 85 37 85 99 1 63-27 99-86 99S16-35 15-95c0-66 28-99 85-99zM99-20c44 1 53-31 53-75 0-43-8-75-51-75s-53 32-53 75 10 74 51 75" id="aY"/><g id="i"><use transform="matrix(0.04248971193415638,0,0,0.04248971193415638,0,0)" xlink:href="#aS"/><use transform="matrix(0.04248971193415638,0,0,0.04248971193415638,11.004835390946502,0)" xlink:href="#aT"/><use transform="matrix(0.04248971193415638,0,0,0.04248971193415638,14.361522633744855,0)" xlink:href="#aU"/><use transform="matrix(0.04248971193415638,0,0,0.04248971193415638,22.85946502057613,0)" xlink:href="#aV"/><use transform="matrix(0.04248971193415638,0,0,0.04248971193415638,31.357407407407408,0)" xlink:href="#aW"/><use transform="matrix(0.04248971193415638,0,0,0.04248971193415638,39.855349794238684,0)" xlink:href="#aX"/><use transform="matrix(0.04248971193415638,0,0,0.04248971193415638,43.212037037037035,0)" xlink:href="#aY"/></g><path fill="#a9afb8" d="M205 0l-28-72H64L36 0H1l101-248h38L239 0h-34zm-38-99l-47-123c-12 45-31 82-46 123h93" id="aZ"/><path fill="#a9afb8" d="M117-194c89-4 53 116 60 194h-32v-121c0-31-8-49-39-48C34-167 62-67 57 0H25l-1-190h30c1 10-1 24 2 32 11-22 29-35 61-36" id="ba"/><path fill="#a9afb8" d="M114-163C36-179 61-72 57 0H25l-1-190h30c1 12-1 29 2 39 6-27 23-49 58-41v29" id="bb"/><path fill="#a9afb8" d="M100-194c63 0 86 42 84 106H49c0 40 14 67 53 68 26 1 43-12 49-29l28 8c-11 28-37 45-77 45C44 4 14-33 15-96c1-61 26-98 85-98zm52 81c6-60-76-77-97-28-3 7-6 17-6 28h103zm-74-98c8-23 27-35 38-54h36v5l-58 49H78" id="bc"/><g id="j"><use transform="matrix(0.04248971193415638,0,0,0.04248971193415638,0,0)" xlink:href="#aZ"/><use transform="matrix(0.04248971193415638,0,0,0.04248971193415638,10.19753086419753,0)" xlink:href="#ba"/><use transform="matrix(0.04248971193415638,0,0,0.04248971193415638,18.695473251028805,0)" xlink:href="#aW"/><use transform="matrix(0.04248971193415638,0,0,0.04248971193415638,27.193415637860078,0)" xlink:href="#bb"/><use transform="matrix(0.04248971193415638,0,0,0.04248971193415638,32.249691358024684,0)" xlink:href="#bc"/></g><path fill="#a9afb8" d="M32 76v-337h29V76H32" id="bd"/><use transform="matrix(0.04248971193415638,0,0,0.04248971193415638,0,0)" xlink:href="#bd" id="k"/><path fill="#a9afb8" d="M153-248C145-148 188 4 80 4 36 3 13-21 6-62l32-5c4 25 16 42 43 43 27 0 39-20 39-49v-147H72v-28h81" id="be"/><path fill="#a9afb8" d="M100-194c63 0 86 42 84 106H49c0 40 14 67 53 68 26 1 43-12 49-29l28 8c-11 28-37 45-77 45C44 4 14-33 15-96c1-61 26-98 85-98zm52 81c6-60-76-77-97-28-3 7-6 17-6 28h103" id="bf"/><g id="l"><use transform="matrix(0.04248971193415638,0,0,0.04248971193415638,0,0)" xlink:href="#be"/><use transform="matrix(0.04248971193415638,0,0,0.04248971193415638,7.648148148148148,0)" xlink:href="#aV"/><use transform="matrix(0.04248971193415638,0,0,0.04248971193415638,16.14609053497942,0)" xlink:href="#ba"/><use transform="matrix(0.04248971193415638,0,0,0.04248971193415638,24.644032921810698,0)" xlink:href="#bf"/></g><path fill="#a9afb8" d="M101-251c82-7 93 87 43 132L82-64C71-53 59-42 53-27h129V0H18c2-99 128-94 128-182 0-28-16-43-45-43s-46 15-49 41l-32-3c6-41 34-60 81-64" id="bg"/><path fill="#a9afb8" d="M27 0v-27h64v-190l-56 39v-29l58-41h29v221h61V0H27" id="bh"/><path fill="#a9afb8" d="M68-38c1 34 0 65-14 84H32c9-13 17-26 17-46H33v-38h35" id="bi"/><g id="m"><use transform="matrix(0.04248971193415638,0,0,0.04248971193415638,0,0)" xlink:href="#bg"/><use transform="matrix(0.04248971193415638,0,0,0.04248971193415638,8.497942386831275,0)" xlink:href="#bh"/><use transform="matrix(0.04248971193415638,0,0,0.04248971193415638,16.99588477366255,0)" xlink:href="#bi"/></g><path fill="#a9afb8" d="M101-251c68 0 85 55 85 127S166 4 100 4C33 4 14-52 14-124c0-73 17-127 87-127zm-1 229c47 0 54-49 54-102s-4-102-53-102c-51 0-55 48-55 102 0 53 5 102 54 102" id="bj"/><g id="n"><use transform="matrix(0.04248971193415638,0,0,0.04248971193415638,0,0)" xlink:href="#bg"/><use transform="matrix(0.04248971193415638,0,0,0.04248971193415638,8.497942386831275,0)" xlink:href="#bj"/><use transform="matrix(0.04248971193415638,0,0,0.04248971193415638,16.99588477366255,0)" xlink:href="#bg"/><use transform="matrix(0.04248971193415638,0,0,0.04248971193415638,25.493827160493822,0)" xlink:href="#bh"/></g><path fill="#333" d="M212-179c-10-28-35-45-73-45-59 0-87 40-87 99 0 60 29 101 89 101 43 0 62-24 78-52l27 14C228-24 195 4 139 4 59 4 22-46 18-125c-6-104 99-153 187-111 19 9 31 26 39 46" id="bk"/><path fill="#333" d="M100-194c62-1 85 37 85 99 1 63-27 99-86 99S16-35 15-95c0-66 28-99 85-99zM99-20c44 1 53-31 53-75 0-43-8-75-51-75s-53 32-53 75 10 74 51 75" id="bl"/><path fill="#333" d="M117-194c89-4 53 116 60 194h-32v-121c0-31-8-49-39-48C34-167 62-67 57 0H25l-1-190h30c1 10-1 24 2 32 11-22 29-35 61-36" id="bm"/><path fill="#333" d="M135-143c-3-34-86-38-87 0 15 53 115 12 119 90S17 21 10-45l28-5c4 36 97 45 98 0-10-56-113-15-118-90-4-57 82-63 122-42 12 7 21 19 24 35" id="bn"/><path fill="#333" d="M84 4C-5 8 30-112 23-190h32v120c0 31 7 50 39 49 72-2 45-101 50-169h31l1 190h-30c-1-10 1-25-2-33-11 22-28 36-60 37" id="bo"/><path fill="#333" d="M24 0v-261h32V0H24" id="bp"/><path fill="#333" d="M59-47c-2 24 18 29 38 22v24C64 9 27 4 27-40v-127H5v-23h24l9-43h21v43h35v23H59v120" id="bq"/><path fill="#333" d="M141-36C126-15 110 5 73 4 37 3 15-17 15-53c-1-64 63-63 125-63 3-35-9-54-41-54-24 1-41 7-42 31l-33-3c5-37 33-52 76-52 45 0 72 20 72 64v82c-1 20 7 32 28 27v20c-31 9-61-2-59-35zM48-53c0 20 12 33 32 33 41-3 63-29 60-74-43 2-92-5-92 41" id="br"/><g id="o"><use transform="matrix(0.05,0,0,0.05,0,0)" xlink:href="#bk"/><use transform="matrix(0.05,0,0,0.05,12.950000000000001,0)" xlink:href="#bl"/><use transform="matrix(0.05,0,0,0.05,22.950000000000003,0)" xlink:href="#bm"/><use transform="matrix(0.05,0,0,0.05,32.95,0)" xlink:href="#bn"/><use transform="matrix(0.05,0,0,0.05,41.95,0)" xlink:href="#bo"/><use transform="matrix(0.05,0,0,0.05,51.95,0)" xlink:href="#bp"/><use transform="matrix(0.05,0,0,0.05,55.900000000000006,0)" xlink:href="#bq"/><use transform="matrix(0.05,0,0,0.05,60.900000000000006,0)" xlink:href="#br"/></g><path fill="#333" d="M127-220V0H93v-220H8v-28h204v28h-85" id="bs"/><path fill="#333" d="M100-194c63 0 86 42 84 106H49c0 40 14 67 53 68 26 1 43-12 49-29l28 8c-11 28-37 45-77 45C44 4 14-33 15-96c1-61 26-98 85-98zm52 81c6-60-76-77-97-28-3 7-6 17-6 28h103" id="bt"/><path fill="#333" d="M210-169c-67 3-38 105-44 169h-31v-121c0-29-5-50-35-48C34-165 62-65 56 0H25l-1-190h30c1 10-1 24 2 32 10-44 99-50 107 0 11-21 27-35 58-36 85-2 47 119 55 194h-31v-121c0-29-5-49-35-48" id="bu"/><path fill="#333" d="M115-194c55 1 70 41 70 98S169 2 115 4C84 4 66-9 55-30l1 105H24l-1-265h31l2 30c10-21 28-34 59-34zm-8 174c40 0 45-34 45-75s-6-73-45-74c-42 0-51 32-51 76 0 43 10 73 51 73" id="bv"/><path fill="#333" d="M114-163C36-179 61-72 57 0H25l-1-190h30c1 12-1 29 2 39 6-27 23-49 58-41v29" id="bw"/><g id="p"><use transform="matrix(0.05,0,0,0.05,0,0)" xlink:href="#bs"/><use transform="matrix(0.05,0,0,0.05,8.950000000000001,0)" xlink:href="#bt"/><use transform="matrix(0.05,0,0,0.05,18.950000000000003,0)" xlink:href="#bu"/><use transform="matrix(0.05,0,0,0.05,33.900000000000006,0)" xlink:href="#bv"/><use transform="matrix(0.05,0,0,0.05,43.900000000000006,0)" xlink:href="#bt"/><use transform="matrix(0.05,0,0,0.05,53.900000000000006,0)" xlink:href="#bw"/><use transform="matrix(0.05,0,0,0.05,59.85,0)" xlink:href="#br"/><use transform="matrix(0.05,0,0,0.05,69.85000000000001,0)" xlink:href="#bq"/><use transform="matrix(0.05,0,0,0.05,74.85000000000001,0)" xlink:href="#bo"/><use transform="matrix(0.05,0,0,0.05,84.85000000000001,0)" xlink:href="#bw"/><use transform="matrix(0.05,0,0,0.05,90.80000000000001,0)" xlink:href="#br"/></g><path fill="#333" d="M30-248c87 1 191-15 191 75 0 78-77 80-158 76V0H30v-248zm33 125c57 0 124 11 124-50 0-59-68-47-124-48v98" id="bx"/><path fill="#333" d="M141 0L90-78 38 0H4l68-98-65-92h35l48 74 47-74h35l-64 92 68 98h-35" id="by"/><path fill="#333" d="M179-190L93 31C79 59 56 82 12 73V49c39 6 53-20 64-50L1-190h34L92-34l54-156h33" id="bz"/><g id="q"><use transform="matrix(0.05,0,0,0.05,0,0)" xlink:href="#bx"/><use transform="matrix(0.05,0,0,0.05,12,0)" xlink:href="#bw"/><use transform="matrix(0.05,0,0,0.05,17.95,0)" xlink:href="#bl"/><use transform="matrix(0.05,0,0,0.05,27.950000000000003,0)" xlink:href="#by"/><use transform="matrix(0.05,0,0,0.05,36.95,0)" xlink:href="#bz"/></g><path fill="#333" d="M24 0v-248h52v208h133V0H24" id="bA"/><path fill="#333" d="M24 0v-248h195v40H76v63h132v40H76v65h150V0H24" id="bB"/><path fill="#333" d="M182 0l-62-99L58 0H3l86-130-79-118h55l55 88 55-88h55l-75 118L237 0h-55" id="bC"/><g id="r"><use transform="matrix(0.05,0,0,0.05,0,0)" xlink:href="#bA"/><use transform="matrix(0.05,0,0,0.05,10.950000000000001,0)" xlink:href="#bB"/><use transform="matrix(0.05,0,0,0.05,22.950000000000003,0)" xlink:href="#bC"/></g><path fill="#333" d="M205 0l-28-72H64L36 0H1l101-248h38L239 0h-34zm-38-99l-47-123c-12 45-31 82-46 123h93" id="bD"/><path fill="#333" d="M33 0v-248h34V0H33" id="bE"/><g id="s"><use transform="matrix(0.05,0,0,0.05,0,0)" xlink:href="#bD"/><use transform="matrix(0.05,0,0,0.05,12,0)" xlink:href="#bx"/><use transform="matrix(0.05,0,0,0.05,24,0)" xlink:href="#bE"/></g><path fill="#333" d="M143 4C61 4 22-44 18-125c-5-107 100-154 193-111 17 8 29 25 37 43l-32 9c-13-25-37-40-76-40-61 0-88 39-88 99 0 61 29 100 91 101 35 0 62-11 79-27v-45h-74v-28h105v86C228-13 192 4 143 4" id="bF"/><path fill="#333" d="M206 0h-36l-40-164L89 0H53L-1-190h32L70-26l43-164h34l41 164 42-164h31" id="bG"/><g id="t"><use transform="matrix(0.05,0,0,0.05,0,0)" xlink:href="#bF"/><use transform="matrix(0.05,0,0,0.05,14,0)" xlink:href="#br"/><use transform="matrix(0.05,0,0,0.05,24,0)" xlink:href="#bq"/><use transform="matrix(0.05,0,0,0.05,29,0)" xlink:href="#bt"/><use transform="matrix(0.05,0,0,0.05,39,0)" xlink:href="#bG"/><use transform="matrix(0.05,0,0,0.05,51.95,0)" xlink:href="#br"/><use transform="matrix(0.05,0,0,0.05,61.95,0)" xlink:href="#bz"/></g><path fill="#333" d="M96-169c-40 0-48 33-48 73s9 75 48 75c24 0 41-14 43-38l32 2c-6 37-31 61-74 61-59 0-76-41-82-99-10-93 101-131 147-64 4 7 5 14 7 22l-32 3c-4-21-16-35-41-35" id="bH"/><path fill="#333" d="M115-194c53 0 69 39 70 98 0 66-23 100-70 100C84 3 66-7 56-30L54 0H23l1-261h32v101c10-23 28-34 59-34zm-8 174c40 0 45-34 45-75 0-40-5-75-45-74-42 0-51 32-51 76 0 43 10 73 51 73" id="bI"/><g id="u"><use transform="matrix(0.05,0,0,0.05,0,0)" xlink:href="#bw"/><use transform="matrix(0.05,0,0,0.05,5.95,0)" xlink:href="#bt"/><use transform="matrix(0.05,0,0,0.05,15.949999999999998,0)" xlink:href="#bH"/><use transform="matrix(0.05,0,0,0.05,24.95,0)" xlink:href="#bt"/><use transform="matrix(0.05,0,0,0.05,34.95,0)" xlink:href="#bI"/><use transform="matrix(0.05,0,0,0.05,44.95,0)" xlink:href="#bt"/></g><use transform="matrix(0.05,0,0,0.05,0,0)" xlink:href="#bt" id="v"/><g id="w"><use transform="matrix(0.05,0,0,0.05,0,0)" xlink:href="#bw"/><use transform="matrix(0.05,0,0,0.05,5.95,0)" xlink:href="#bt"/><use transform="matrix(0.05,0,0,0.05,15.949999999999998,0)" xlink:href="#bv"/><use transform="matrix(0.05,0,0,0.05,25.950000000000003,0)" xlink:href="#br"/><use transform="matrix(0.05,0,0,0.05,35.95,0)" xlink:href="#bn"/><use transform="matrix(0.05,0,0,0.05,44.95,0)" xlink:href="#bn"/><use transform="matrix(0.05,0,0,0.05,53.95,0)" xlink:href="#br"/></g><g id="x"><use transform="matrix(0.05,0,0,0.05,0,0)" xlink:href="#br"/><use transform="matrix(0.05,0,0,0.05,10,0)" xlink:href="#bl"/><use transform="matrix(0.05,0,0,0.05,20,0)" xlink:href="#bn"/></g><path fill="#333" d="M85-194c31 0 48 13 60 33l-1-100h32l1 261h-30c-2-10 0-23-3-31C134-8 116 4 85 4 32 4 16-35 15-94c0-66 23-100 70-100zm9 24c-40 0-46 34-46 75 0 40 6 74 45 74 42 0 51-32 51-76 0-42-9-74-50-73" id="bJ"/><path fill="#333" d="M24-231v-30h32v30H24zM24 0v-190h32V0H24" id="bK"/><g id="y"><use transform="matrix(0.05,0,0,0.05,0,0)" xlink:href="#bt"/><use transform="matrix(0.05,0,0,0.05,10,0)" xlink:href="#bm"/><use transform="matrix(0.05,0,0,0.05,20,0)" xlink:href="#bJ"/><use transform="matrix(0.05,0,0,0.05,30,0)" xlink:href="#bv"/><use transform="matrix(0.05,0,0,0.05,40,0)" xlink:href="#bl"/><use transform="matrix(0.05,0,0,0.05,50,0)" xlink:href="#bK"/><use transform="matrix(0.05,0,0,0.05,53.95,0)" xlink:href="#bm"/><use transform="matrix(0.05,0,0,0.05,63.95,0)" xlink:href="#bq"/><use transform="matrix(0.05,0,0,0.05,68.95,0)" xlink:href="#bn"/></g><g id="z"><use transform="matrix(0.05,0,0,0.05,0,0)" xlink:href="#br"/><use transform="matrix(0.05,0,0,0.05,10,0)" xlink:href="#bn"/></g><path fill="#333" d="M106-169C34-169 62-67 57 0H25v-261h32l-1 103c12-21 28-36 61-36 89 0 53 116 60 194h-32v-121c2-32-8-49-39-48" id="bL"/><g id="A"><use transform="matrix(0.05,0,0,0.05,0,0)" xlink:href="#bH"/><use transform="matrix(0.05,0,0,0.05,9,0)" xlink:href="#bL"/><use transform="matrix(0.05,0,0,0.05,19,0)" xlink:href="#br"/><use transform="matrix(0.05,0,0,0.05,29,0)" xlink:href="#bu"/><use transform="matrix(0.05,0,0,0.05,43.95,0)" xlink:href="#br"/><use transform="matrix(0.05,0,0,0.05,53.95,0)" xlink:href="#bJ"/><use transform="matrix(0.05,0,0,0.05,63.95,0)" xlink:href="#br"/><use transform="matrix(0.05,0,0,0.05,73.95,0)" xlink:href="#bn"/></g><path fill="#333" d="M233-177c-1 41-23 64-60 70L243 0h-38l-65-103H63V0H30v-248c88 3 205-21 203 71zM63-129c60-2 137 13 137-47 0-61-80-42-137-45v92" id="bM"/><path fill="#333" d="M30 0v-248h187v28H63v79h144v27H63v87h162V0H30" id="bN"/><path fill="#333" d="M185-189c-5-48-123-54-124 2 14 75 158 14 163 119 3 78-121 87-175 55-17-10-28-26-33-46l33-7c5 56 141 63 141-1 0-78-155-14-162-118-5-82 145-84 179-34 5 7 8 16 11 25" id="bO"/><g id="B"><use transform="matrix(0.05,0,0,0.05,0,0)" xlink:href="#bM"/><use transform="matrix(0.05,0,0,0.05,12.950000000000001,0)" xlink:href="#bN"/><use transform="matrix(0.05,0,0,0.05,24.950000000000003,0)" xlink:href="#bO"/><use transform="matrix(0.05,0,0,0.05,36.95,0)" xlink:href="#bs"/></g><g id="C"><use transform="matrix(0.05,0,0,0.05,0,0)" xlink:href="#bD"/><use transform="matrix(0.05,0,0,0.05,12,0)" xlink:href="#bx"/><use transform="matrix(0.05,0,0,0.05,24,0)" xlink:href="#bE"/></g><path fill="#333" d="M9 0v-24l116-142H16v-24h144v24L44-24h123V0H9" id="bP"/><g id="D"><use transform="matrix(0.05,0,0,0.05,0,0)" xlink:href="#bD"/><use transform="matrix(0.05,0,0,0.05,12,0)" xlink:href="#bu"/><use transform="matrix(0.05,0,0,0.05,26.950000000000003,0)" xlink:href="#br"/><use transform="matrix(0.05,0,0,0.05,36.95,0)" xlink:href="#bP"/><use transform="matrix(0.05,0,0,0.05,45.95,0)" xlink:href="#bl"/><use transform="matrix(0.05,0,0,0.05,55.95,0)" xlink:href="#bm"/></g><path fill="#333" d="M30-248c118-7 216 8 213 122C240-48 200 0 122 0H30v-248zM63-27c89 8 146-16 146-99s-60-101-146-95v194" id="bQ"/><path fill="#333" d="M160-131c35 5 61 23 61 61C221 17 115-2 30 0v-248c76 3 177-17 177 60 0 33-19 50-47 57zm-97-11c50-1 110 9 110-42 0-47-63-36-110-37v79zm0 115c55-2 124 14 124-45 0-56-70-42-124-44v89" id="bR"/><g id="E"><use transform="matrix(0.05,0,0,0.05,0,0)" xlink:href="#bQ"/><use transform="matrix(0.05,0,0,0.05,12.950000000000001,0)" xlink:href="#bz"/><use transform="matrix(0.05,0,0,0.05,21.950000000000003,0)" xlink:href="#bm"/><use transform="matrix(0.05,0,0,0.05,31.950000000000003,0)" xlink:href="#br"/><use transform="matrix(0.05,0,0,0.05,41.95,0)" xlink:href="#bu"/><use transform="matrix(0.05,0,0,0.05,56.900000000000006,0)" xlink:href="#bl"/><use transform="matrix(0.05,0,0,0.05,66.9,0)" xlink:href="#bQ"/><use transform="matrix(0.05,0,0,0.05,79.85000000000001,0)" xlink:href="#bR"/></g><path fill="#333" d="M63-220v92h138v28H63V0H30v-248h175v28H63" id="bS"/><g id="F"><use transform="matrix(0.05,0,0,0.05,0,0)" xlink:href="#bk"/><use transform="matrix(0.05,0,0,0.05,12.950000000000001,0)" xlink:href="#bp"/><use transform="matrix(0.05,0,0,0.05,16.900000000000002,0)" xlink:href="#bl"/><use transform="matrix(0.05,0,0,0.05,26.900000000000002,0)" xlink:href="#bo"/><use transform="matrix(0.05,0,0,0.05,36.900000000000006,0)" xlink:href="#bJ"/><use transform="matrix(0.05,0,0,0.05,46.900000000000006,0)" xlink:href="#bS"/><use transform="matrix(0.05,0,0,0.05,57.85,0)" xlink:href="#bw"/><use transform="matrix(0.05,0,0,0.05,63.80000000000001,0)" xlink:href="#bl"/><use transform="matrix(0.05,0,0,0.05,73.80000000000001,0)" xlink:href="#bm"/><use transform="matrix(0.05,0,0,0.05,83.80000000000001,0)" xlink:href="#bq"/></g><g id="G"><use transform="matrix(0.05,0,0,0.05,0,0)" xlink:href="#bw"/><use transform="matrix(0.05,0,0,0.05,5.95,0)" xlink:href="#bt"/><use transform="matrix(0.05,0,0,0.05,15.949999999999998,0)" xlink:href="#bH"/><use transform="matrix(0.05,0,0,0.05,24.95,0)" xlink:href="#bt"/><use transform="matrix(0.05,0,0,0.05,34.95,0)" xlink:href="#bI"/><use transform="matrix(0.05,0,0,0.05,44.95,0)" xlink:href="#bt"/></g><path fill="#333" d="M145-31C134-9 116 4 85 4 32 4 16-35 15-94c0-59 17-99 70-100 32-1 48 14 60 33 0-11-1-24 2-32h30l-1 268h-32zM93-21c41 0 51-33 51-76s-8-73-50-73c-40 0-46 35-46 75s5 74 45 74" id="bT"/><path fill="#333" d="M96-169c-40 0-48 33-48 73s9 75 48 75c24 0 41-14 43-38l32 2c-6 37-31 61-74 61-59 0-76-41-82-99-10-93 101-131 147-64 4 7 5 14 7 22l-32 3c-4-21-16-35-41-35zm3 187c19-1 33 8 33 26 0 31-30 33-64 32V58c18 2 39 4 41-13 1-15-18-13-34-13L87 0h19" id="bU"/><path fill="#333" d="M141-36C126-15 110 5 73 4 37 3 15-17 15-53c-1-64 63-63 125-63 3-35-9-54-41-54-24 1-41 7-42 31l-33-3c5-37 33-52 76-52 45 0 72 20 72 64v82c-1 20 7 32 28 27v20c-31 9-61-2-59-35zM48-53c0 20 12 33 32 33 41-3 63-29 60-74-43 2-92-5-92 41zm117-205c-3 23-9 48-36 47-26-1-65-44-74 0H39c4-23 8-48 36-47s64 44 74 0h16" id="bV"/><g id="H"><use transform="matrix(0.05,0,0,0.05,0,0)" xlink:href="#bw"/><use transform="matrix(0.05,0,0,0.05,5.95,0)" xlink:href="#bt"/><use transform="matrix(0.05,0,0,0.05,15.949999999999998,0)" xlink:href="#bT"/><use transform="matrix(0.05,0,0,0.05,25.950000000000003,0)" xlink:href="#bo"/><use transform="matrix(0.05,0,0,0.05,35.95,0)" xlink:href="#bK"/><use transform="matrix(0.05,0,0,0.05,39.900000000000006,0)" xlink:href="#bn"/><use transform="matrix(0.05,0,0,0.05,48.900000000000006,0)" xlink:href="#bK"/><use transform="matrix(0.05,0,0,0.05,52.85,0)" xlink:href="#bU"/><use transform="matrix(0.05,0,0,0.05,61.85,0)" xlink:href="#bV"/><use transform="matrix(0.05,0,0,0.05,71.85000000000001,0)" xlink:href="#bl"/></g><g id="I"><use transform="matrix(0.05,0,0,0.05,0,0)" xlink:href="#bJ"/><use transform="matrix(0.05,0,0,0.05,10,0)" xlink:href="#bl"/></g><g id="J"><use transform="matrix(0.05,0,0,0.05,0,0)" xlink:href="#bR"/><use transform="matrix(0.05,0,0,0.05,12,0)" xlink:href="#bw"/><use transform="matrix(0.05,0,0,0.05,17.95,0)" xlink:href="#bl"/><use transform="matrix(0.05,0,0,0.05,27.950000000000003,0)" xlink:href="#bG"/><use transform="matrix(0.05,0,0,0.05,40.9,0)" xlink:href="#bn"/><use transform="matrix(0.05,0,0,0.05,49.9,0)" xlink:href="#bt"/><use transform="matrix(0.05,0,0,0.05,59.900000000000006,0)" xlink:href="#bw"/></g><use transform="matrix(0.05,0,0,0.05,0,0)" xlink:href="#bt" id="K"/><path fill="#333" d="M108 0H70L1-190h34L89-25l56-165h34" id="bW"/><g id="L"><use transform="matrix(0.05,0,0,0.05,0,0)" xlink:href="#bn"/><use transform="matrix(0.05,0,0,0.05,9,0)" xlink:href="#br"/><use transform="matrix(0.05,0,0,0.05,19,0)" xlink:href="#bp"/><use transform="matrix(0.05,0,0,0.05,22.95,0)" xlink:href="#bW"/><use transform="matrix(0.05,0,0,0.05,31.950000000000003,0)" xlink:href="#br"/></g><g id="M"><use transform="matrix(0.05,0,0,0.05,0,0)" xlink:href="#bo"/><use transform="matrix(0.05,0,0,0.05,10,0)" xlink:href="#bu"/></g><g id="N"><use transform="matrix(0.05,0,0,0.05,0,0)" xlink:href="#bH"/><use transform="matrix(0.05,0,0,0.05,9,0)" xlink:href="#br"/><use transform="matrix(0.05,0,0,0.05,19,0)" xlink:href="#bH"/><use transform="matrix(0.05,0,0,0.05,28,0)" xlink:href="#bL"/><use transform="matrix(0.05,0,0,0.05,38,0)" xlink:href="#bt"/></g><path fill="#333" d="M100-194c62-1 85 37 85 99 1 63-27 99-86 99S16-35 15-95c0-66 28-99 85-99zM99-20c44 1 53-31 53-75 0-43-8-75-51-75s-53 32-53 75 10 74 51 75zM76-211c8-23 27-35 38-54h36v5l-58 49H76" id="bX"/><g id="O"><use transform="matrix(0.05,0,0,0.05,0,0)" xlink:href="#bv"/><use transform="matrix(0.05,0,0,0.05,10,0)" xlink:href="#bw"/><use transform="matrix(0.05,0,0,0.05,15.949999999999998,0)" xlink:href="#bX"/><use transform="matrix(0.05,0,0,0.05,25.950000000000003,0)" xlink:href="#by"/><use transform="matrix(0.05,0,0,0.05,34.95,0)" xlink:href="#bK"/><use transform="matrix(0.05,0,0,0.05,38.900000000000006,0)" xlink:href="#bu"/><use transform="matrix(0.05,0,0,0.05,53.85,0)" xlink:href="#bl"/></g><g id="P"><use transform="matrix(0.05,0,0,0.05,0,0)" xlink:href="#br"/><use transform="matrix(0.05,0,0,0.05,10,0)" xlink:href="#bl"/></g><path fill="#333" d="M141-36C126-15 110 5 73 4 37 3 15-17 15-53c-1-64 63-63 125-63 3-35-9-54-41-54-24 1-41 7-42 31l-33-3c5-37 33-52 76-52 45 0 72 20 72 64v82c-1 20 7 32 28 27v20c-31 9-61-2-59-35zM48-53c0 20 12 33 32 33 41-3 63-29 60-74-43 2-92-5-92 41zm25-158c8-23 27-35 38-54h36v5l-58 49H73" id="bY"/><g id="Q"><use transform="matrix(0.05,0,0,0.05,0,0)" xlink:href="#bo"/><use transform="matrix(0.05,0,0,0.05,10,0)" xlink:href="#bn"/><use transform="matrix(0.05,0,0,0.05,19,0)" xlink:href="#bo"/><use transform="matrix(0.05,0,0,0.05,29,0)" xlink:href="#bY"/><use transform="matrix(0.05,0,0,0.05,39,0)" xlink:href="#bw"/><use transform="matrix(0.05,0,0,0.05,44.95,0)" xlink:href="#bK"/><use transform="matrix(0.05,0,0,0.05,48.900000000000006,0)" xlink:href="#bl"/></g><path fill="#333" d="M16-82v-28h88v28H16" id="bZ"/><g id="R"><use transform="matrix(0.05,0,0,0.05,0,0)" xlink:href="#bS"/><use transform="matrix(0.05,0,0,0.05,10.950000000000001,0)" xlink:href="#bw"/><use transform="matrix(0.05,0,0,0.05,16.900000000000002,0)" xlink:href="#bl"/><use transform="matrix(0.05,0,0,0.05,26.900000000000002,0)" xlink:href="#bm"/><use transform="matrix(0.05,0,0,0.05,36.900000000000006,0)" xlink:href="#bq"/><use transform="matrix(0.05,0,0,0.05,41.900000000000006,0)" xlink:href="#bZ"/><use transform="matrix(0.05,0,0,0.05,47.85000000000001,0)" xlink:href="#bt"/><use transform="matrix(0.05,0,0,0.05,57.85,0)" xlink:href="#bm"/><use transform="matrix(0.05,0,0,0.05,67.85000000000001,0)" xlink:href="#bJ"/></g><g id="S"><use transform="matrix(0.05,0,0,0.05,0,0)" xlink:href="#br"/><use transform="matrix(0.05,0,0,0.05,10,0)" xlink:href="#bw"/><use transform="matrix(0.05,0,0,0.05,15.949999999999998,0)" xlink:href="#bu"/><use transform="matrix(0.05,0,0,0.05,30.899999999999995,0)" xlink:href="#br"/><use transform="matrix(0.05,0,0,0.05,40.9,0)" xlink:href="#bP"/><use transform="matrix(0.05,0,0,0.05,49.9,0)" xlink:href="#bt"/><use transform="matrix(0.05,0,0,0.05,59.900000000000006,0)" xlink:href="#bm"/><use transform="matrix(0.05,0,0,0.05,69.9,0)" xlink:href="#br"/><use transform="matrix(0.05,0,0,0.05,79.9,0)" xlink:href="#bJ"/><use transform="matrix(0.05,0,0,0.05,89.9,0)" xlink:href="#bl"/></g><g id="T"><use transform="matrix(0.05,0,0,0.05,0,0)" xlink:href="#bm"/><use transform="matrix(0.05,0,0,0.05,10,0)" xlink:href="#bl"/></g><path fill="#333" d="M126-127c33 6 58 20 58 59 0 88-139 92-164 29-3-8-5-16-6-25l32-3c6 27 21 44 54 44 32 0 52-15 52-46 0-38-36-46-79-43v-28c39 1 72-4 72-42 0-27-17-43-46-43-28 0-47 15-49 41l-32-3c6-42 35-63 81-64 48-1 79 21 79 65 0 36-21 52-52 59" id="ca"/><g id="U"><use transform="matrix(0.05,0,0,0.05,0,0)" xlink:href="#bO"/><use transform="matrix(0.05,0,0,0.05,12,0)" xlink:href="#ca"/></g><path fill="#333" d="M30 0v-248h33v221h125V0H30" id="cb"/><g id="V"><use transform="matrix(0.05,0,0,0.05,0,0)" xlink:href="#cb"/><use transform="matrix(0.05,0,0,0.05,10,0)" xlink:href="#bt"/><use transform="matrix(0.05,0,0,0.05,20,0)" xlink:href="#by"/></g><g id="W"><use transform="matrix(0.05,0,0,0.05,0,0)" xlink:href="#cb"/><use transform="matrix(0.05,0,0,0.05,10,0)" xlink:href="#br"/><use transform="matrix(0.05,0,0,0.05,20,0)" xlink:href="#bu"/><use transform="matrix(0.05,0,0,0.05,34.95,0)" xlink:href="#bJ"/><use transform="matrix(0.05,0,0,0.05,44.95,0)" xlink:href="#br"/></g><g id="X"><use transform="matrix(0.05,0,0,0.05,0,0)" xlink:href="#bt"/><use transform="matrix(0.05,0,0,0.05,10,0)" xlink:href="#by"/><use transform="matrix(0.05,0,0,0.05,19,0)" xlink:href="#bt"/><use transform="matrix(0.05,0,0,0.05,29,0)" xlink:href="#bH"/><use transform="matrix(0.05,0,0,0.05,38,0)" xlink:href="#bo"/><use transform="matrix(0.05,0,0,0.05,48,0)" xlink:href="#bq"/><use transform="matrix(0.05,0,0,0.05,53,0)" xlink:href="#br"/></g><use transform="matrix(0.05,0,0,0.05,0,0)" xlink:href="#bl" id="Y"/><path fill="#333" d="M177-190C167-65 218 103 67 71c-23-6-38-20-44-43l32-5c15 47 100 32 89-28v-30C133-14 115 1 83 1 29 1 15-40 15-95c0-56 16-97 71-98 29-1 48 16 59 35 1-10 0-23 2-32h30zM94-22c36 0 50-32 50-73 0-42-14-75-50-75-39 0-46 34-46 75s6 73 46 73" id="cc"/><g id="Z"><use transform="matrix(0.05,0,0,0.05,0,0)" xlink:href="#bH"/><use transform="matrix(0.05,0,0,0.05,9,0)" xlink:href="#bX"/><use transform="matrix(0.05,0,0,0.05,19,0)" xlink:href="#bJ"/><use transform="matrix(0.05,0,0,0.05,29,0)" xlink:href="#bK"/><use transform="matrix(0.05,0,0,0.05,32.95,0)" xlink:href="#cc"/><use transform="matrix(0.05,0,0,0.05,42.95,0)" xlink:href="#bl"/></g><g id="aa"><use transform="matrix(0.05,0,0,0.05,0,0)" xlink:href="#bw"/><use transform="matrix(0.05,0,0,0.05,5.95,0)" xlink:href="#bt"/><use transform="matrix(0.05,0,0,0.05,15.949999999999998,0)" xlink:href="#bH"/><use transform="matrix(0.05,0,0,0.05,24.95,0)" xlink:href="#bo"/><use transform="matrix(0.05,0,0,0.05,34.95,0)" xlink:href="#bv"/><use transform="matrix(0.05,0,0,0.05,44.95,0)" xlink:href="#bt"/><use transform="matrix(0.05,0,0,0.05,54.95,0)" xlink:href="#bw"/><use transform="matrix(0.05,0,0,0.05,60.900000000000006,0)" xlink:href="#br"/></g><use transform="matrix(0.05,0,0,0.05,0,0)" xlink:href="#br" id="ab"/><g id="ac"><use transform="matrix(0.05,0,0,0.05,0,0)" xlink:href="#bq"/><use transform="matrix(0.05,0,0,0.05,5,0)" xlink:href="#bt"/><use transform="matrix(0.05,0,0,0.05,15,0)" xlink:href="#bu"/><use transform="matrix(0.05,0,0,0.05,29.950000000000003,0)" xlink:href="#bv"/><use transform="matrix(0.05,0,0,0.05,39.95,0)" xlink:href="#bt"/><use transform="matrix(0.05,0,0,0.05,49.95,0)" xlink:href="#bw"/><use transform="matrix(0.05,0,0,0.05,55.900000000000006,0)" xlink:href="#br"/><use transform="matrix(0.05,0,0,0.05,65.9,0)" xlink:href="#bq"/><use transform="matrix(0.05,0,0,0.05,70.9,0)" xlink:href="#bo"/><use transform="matrix(0.05,0,0,0.05,80.9,0)" xlink:href="#bw"/><use transform="matrix(0.05,0,0,0.05,86.85000000000001,0)" xlink:href="#br"/></g><g id="ad"><use transform="matrix(0.05,0,0,0.05,0,0)" xlink:href="#bQ"/><use transform="matrix(0.05,0,0,0.05,12.950000000000001,0)" xlink:href="#bR"/></g><g id="ae"><use transform="matrix(0.05,0,0,0.05,0,0)" xlink:href="#bl"/><use transform="matrix(0.05,0,0,0.05,10,0)" xlink:href="#bo"/></g><g id="af"><use transform="matrix(0.05,0,0,0.05,0,0)" xlink:href="#bH"/><use transform="matrix(0.05,0,0,0.05,9,0)" xlink:href="#bL"/><use transform="matrix(0.05,0,0,0.05,19,0)" xlink:href="#br"/><use transform="matrix(0.05,0,0,0.05,29,0)" xlink:href="#bu"/><use transform="matrix(0.05,0,0,0.05,43.95,0)" xlink:href="#br"/><use transform="matrix(0.05,0,0,0.05,53.95,0)" xlink:href="#bJ"/><use transform="matrix(0.05,0,0,0.05,63.95,0)" xlink:href="#br"/></g><g id="ag"><use transform="matrix(0.05,0,0,0.05,0,0)" xlink:href="#bv"/><use transform="matrix(0.05,0,0,0.05,10,0)" xlink:href="#br"/><use transform="matrix(0.05,0,0,0.05,20,0)" xlink:href="#bw"/><use transform="matrix(0.05,0,0,0.05,25.950000000000003,0)" xlink:href="#br"/></g><path fill="#333" d="M195 0l-74-108L45 0H8l94-129-87-119h37l69 98 67-98h37l-84 118L233 0h-38" id="cd"/><g id="ah"><use transform="matrix(0.05,0,0,0.05,0,0)" xlink:href="#cb"/><use transform="matrix(0.05,0,0,0.05,10,0)" xlink:href="#bN"/><use transform="matrix(0.05,0,0,0.05,22,0)" xlink:href="#cd"/></g></defs></g></svg>